<?xml version="1.0" encoding="UTF-8"?>
<svg id="_图层_1" data-name="图层_1" xmlns="http://www.w3.org/2000/svg" version="1.1" viewBox="0 0 301.68 301.68">
  <!-- Generator: Adobe Illustrator 30.1.0, SVG Export Plug-In . SVG Version: 2.1.1 Build 136)  -->
  <defs>
    <style>
      .st0 {
        fill: #dce2dd;
      }

      .st1 {
        fill: #a7c9cf;
      }

      .st2 {
        fill: #b0200f;
      }

      .st3 {
        fill: #4f291b;
      }

      .st4 {
        fill: #fbfae6;
      }

      .st5 {
        fill: #f4f5e4;
      }

      .st6 {
        fill: #c6d1d7;
      }

      .st7 {
        fill: #020304;
      }

      .st8 {
        fill: #2c7cbe;
      }

      .st9 {
        fill: #d8301f;
      }

      .st10 {
        fill: #010101;
      }

      .st11 {
        fill: #dd9f58;
      }

      .st12 {
        fill: #951b12;
      }

      .st13 {
        fill: #fcfbe6;
      }

      .st14 {
        fill: #552c1c;
      }

      .st15 {
        fill: #d5dddb;
      }

      .st16 {
        fill: #894528;
      }

      .st17 {
        fill: #a25f23;
      }

      .st18 {
        fill: #cd2e1d;
      }

      .st19 {
        fill: #984d2b;
      }

      .st20 {
        fill: #a35f21;
      }

      .st21 {
        fill: #a26023;
      }

      .st22 {
        fill: #9e6327;
      }

      .st23 {
        fill: #eef0e2;
      }

      .st24 {
        fill: #df3221;
      }

      .st25 {
        fill: #f9f9e5;
      }

      .st26 {
        fill: #4c0402;
      }

      .st27 {
        fill: #914929;
      }

      .st28 {
        fill: #ca2a19;
      }

      .st29 {
        fill: #b22110;
      }

      .st30 {
        fill: #c22817;
      }

      .st31 {
        fill: #7c3f25;
      }

      .st32 {
        fill: #f1f3e3;
      }

      .st33 {
        fill: #510602;
      }

      .st34 {
        fill: #de3221;
      }

      .st35 {
        fill: #e13322;
      }

      .st36 {
        fill: #eec792;
      }

      .st37 {
        fill: #8d4728;
      }

      .st38 {
        fill: #d1dada;
      }

      .st39 {
        fill: #da3120;
      }

      .st40 {
        fill: #fafbfa;
      }

      .st41 {
        fill: #b32110;
      }

      .st42 {
        fill: #d9dfdc;
      }

      .st43 {
        fill: #592e1d;
      }

      .st44 {
        fill: #d62f1e;
      }

      .st45 {
        fill: #7f6a51;
      }

      .st46 {
        fill: #cb2b1b;
      }

      .st47 {
        fill: #010201;
      }

      .st48 {
        fill: #d7b388;
      }

      .st49 {
        fill: #d12d1c;
      }

      .st50 {
        fill: #c02615;
      }

      .st51 {
        fill: #550703;
      }

      .st52 {
        fill: #984c2b;
      }

      .st53 {
        fill: #c72a19;
      }

      .st54 {
        fill: #e6eae0;
      }

      .st55 {
        fill: #c7d2d7;
      }

      .st56 {
        fill: #bf2a19;
      }

      .st57 {
        fill: #3380c0;
      }

      .st58 {
        fill: #cad4d8;
      }

      .st59 {
        fill: #7e6a51;
      }

      .st60 {
        fill: #ba7c36;
      }

      .st61 {
        fill: #b62211;
      }

      .st62 {
        fill: #512b1c;
      }

      .st63 {
        fill: #c7d1d7;
      }

      .st64 {
        fill: #030403;
      }

      .st65 {
        fill: #dbe2dd;
      }

      .st66 {
        fill: #dfe5de;
      }

      .st67 {
        fill: #673c0a;
      }

      .st68 {
        fill: #dc3120;
      }

      .st69 {
        fill: #4a2719;
      }

      .st70 {
        fill: #db3120;
      }

      .st71 {
        fill: #525457;
      }

      .st72 {
        fill: #f5f6e4;
      }

      .st73 {
        fill: #d5dcdb;
      }

      .st74 {
        fill: #da8762;
      }

      .st75 {
        fill: #fee1be;
      }

      .st76 {
        fill: #522b1c;
      }

      .st77 {
        fill: #dc3221;
      }

      .st78 {
        fill: #743b23;
      }

      .st79 {
        fill: #dbe1dd;
      }

      .st80 {
        fill: #f3f4e4;
      }

      .st81 {
        fill: #f8fdf6;
      }

      .st82 {
        fill: #f7fcf5;
      }

      .st83 {
        fill: #d3301f;
      }

      .st84 {
        fill: #a25f22;
      }

      .st85 {
        fill: #bc2514;
      }

      .st86 {
        fill: #bf8138;
      }

      .st87 {
        fill: #010100;
      }

      .st88 {
        fill: #e7eae0;
      }

      .st89 {
        fill: #f7f7e5;
      }

      .st90 {
        fill: #7d140c;
      }

      .st91 {
        fill: #844326;
      }

      .st92 {
        fill: #e3e7df;
      }

      .st93 {
        fill: #954b2a;
      }

      .st94 {
        fill: #c9d3d8;
      }

      .st95 {
        fill: #d22d1c;
      }

      .st96 {
        fill: #a16023;
      }

      .st97 {
        fill: #4e281b;
      }

      .st98 {
        fill: #f8f8e5;
      }

      .st99 {
        fill: #f6faf3;
      }

      .st100 {
        fill: #5d0a06;
      }

      .st101 {
        fill: #090705;
      }

      .st102 {
        fill: #bb2413;
      }

      .st103 {
        fill: #010304;
      }

      .st104 {
        fill: #2d7ec2;
      }

      .st105 {
        fill: #670c05;
      }

      .st106 {
        fill: #c02616;
      }

      .st107 {
        fill: #a8581a;
      }

      .st108 {
        fill: #fefefe;
      }

      .st109 {
        fill: #c62817;
      }

      .st110 {
        fill: #974c2b;
      }

      .st111 {
        fill: #b32312;
      }

      .st112 {
        fill: #db8662;
      }

      .st113 {
        fill: #3a83be;
      }

      .st114 {
        fill: #4383b6;
      }

      .st115 {
        fill: #eaede1;
      }

      .st116 {
        fill: #6b3721;
      }

      .st117 {
        fill: #502a1c;
      }

      .st118 {
        fill: #f8f8f8;
      }

      .st119 {
        fill: #cc2b1a;
      }

      .st120 {
        fill: #974c2a;
      }

      .st121 {
        fill: #924929;
      }

      .st122 {
        fill: #cdd7d9;
      }

      .st123 {
        fill: #4a2619;
      }

      .st124 {
        fill: #f2f6ef;
      }

      .st125 {
        fill: #0b2867;
      }

      .st126 {
        fill: #da8661;
      }

      .st127 {
        fill: #efc892;
      }

      .st128 {
        fill: #bb2615;
      }
    </style>
  </defs>
  <g>
    <path class="st67" d="M229.26,301.68H75.54c-.35-.7-2.17-1.52-2.6-2.34l153.91-.05V2.49c.01-.85.05-1.36.08-1.95.8,1.03,1.53,2.11,2.33,3.39v297.76Z"/>
    <path d="M226.93.54c-.03.59-.07,1.11-.07,1.95v296.8s-153.92.05-153.92.05c-.11-.11-.28-.48-.28-.84V.23s153.18.01,153.18.01c.52,0,.86.12,1.08.3ZM225.66,298.08V1.44H73.86v296.64h151.8Z"/>
    <path class="st86" d="M225.66,4.32v293.77H77.46V4.3s148.2.01,148.2.01ZM95.44,34.18v-13.74s12.99-.03,12.99-.03c.7,0,1.15-1.06,1.25-1.66v-7.36s-2.21,0-2.21,0l-20.17.06c-.88,0-1.45.68-1.45,1.52v21.32c0,.66.55,1.18,1.19,1.18h7.22c.66,0,1.18-.51,1.18-1.29ZM212.61,35.46c.59,0,1.07-.67,1.07-1.18V12.96c0-.83-.58-1.51-1.45-1.51l-20.38-.05-1.99.03v7.35c.03.35.56,1.62,1.02,1.62l13.21.04v14.09c.01.48.75.95,1.17.95l7.36-.02ZM94.45,120.12c-1.18-.42-4.47-1.73-4.88-.1-1.72,6.74-.78,13.98,1.08,20.57.02.08.05.46-.03.49l-.41.17c-2.05.47-4.19,2.14-4.42,4.39-.1,1.01.34,2.36.95,3.12s.85,1.23.86,2.08l.02,1.45c.02,1.19.48,2.28,1.22,3.22-.14,1.67.3,3.48,1.66,4.57.65.53,1.16.98,1.84,1.61.52.48,1.67,1.09,2.42,1.14l-.02,34.53c0,.39-.11.81-.23,1.03-.19.36-.25.78-.25,1.43v63.99s-7.2.02-7.2.02c-.65,0-1.19.51-1.19,1.19v21.3c0,.84.58,1.52,1.45,1.53l20.59.05c.66,0,1.23-.02,1.79-.06v-7.75s80.19,0,80.19,0v7.7c.39.08,1.01.11,1.53.11l20.83-.06c.87,0,1.45-.69,1.45-1.52v-21.3c0-.7-.51-1.2-1.19-1.2l-6.97-.05v-64.99c0-.25-.36-.42-.49-.43v-26.17c.71-.66,4.44-.59,3.78-1.72l-1.37-2.37c-.93-1.61-2.72-9.69-2.5-11.91,1.6-.75,2.85-2,3.31-3.74,2.77-2.07,1.54-3.65,2.9-5.32,1.61-1.97,1.53-4.57.38-6.7.57-.67,1.3-1.56,1.29-2.35-.02-1.52-.71-2.97-1.76-4.05-2.64-2.72-5.33-2.4-5.18-3.62.42-3.38,1.06-6.96,2.35-10.16.12-.31.54-1.01.42-1.29-.19-.47-1.04-.17-1.44.05-.65.36-1.51.46-2.15.69l-.04-40.97-.28-2.46-.25-2.36c-.64-6.07-3.34-13.76-6.29-19.1-1.66-3-4.19-6.86-6.43-9.4l-1.47-1.67c-1-1.13-2.08-2.24-3.23-3.22l-1.43-1.23c-1.07-.92-2.19-1.85-3.37-2.6l-3.38-2.15c-.15-.18-.52-.53-.74-.65l-2.69-1.46c-2.95-1.6-7.69-3.45-10.97-4.34-6.39-1.72-13.81-2.45-20.36-1.67l-2.13.25c-2.64.32-5.14.91-7.71,1.65-3.99,1.14-7.66,2.8-11.34,4.69-1.97,1.02-7.31,4.7-8.94,6.2-2.17,2-4.22,4.04-6.21,6.21-1.5,1.64-5.19,6.96-6.2,8.94-3.64,7.06-5.61,12.73-6.58,20.7l-.29,2.34v41.95c0,.47-.25.8-.28.77Z"/>
    <polygon class="st75" points="225.66 4.32 77.47 4.3 77.46 298.08 73.86 298.08 73.86 1.44 225.66 1.44 225.66 4.32"/>
    <g>
      <path class="st48" d="M178.9,34.53l3.38,2.15c1.18.75,2.3,1.68,3.37,2.6l1.43,1.23c1.14.98,2.23,2.09,3.23,3.22l1.47,1.67c2.24,2.53,4.77,6.4,6.43,9.4,2.95,5.34,5.65,13.03,6.29,19.1l.25,2.36.28,2.46.04,40.97c-3.75,1.28-7.58,2.42-11.5,3.54-1.54-3-3.3-5.72-5.29-8.36l-.43-1.26c-.41-.32-1.09-.9-1.49-1.07l-2.59-1.11c-3.57-1.53-7.31-2.75-11.02-4.01l.36-.83c.18-.41-1.86-1.96-2.83-3.21l-2.6-3.35c-.15-.2-.13-.81-.02-.99,1.94-3.19,3.68-6.53,5.04-10.06l2.52-.42c2.36,4.17,6.55,7.37,11.24,7.94l3.91.47c.62.08,2.17.86,2.47.03.33-.94-1.28-1.31-2.02-1.95-1.74-1.5-2.48-5.84-4.7-7.74,2.3.09,4.42-.4,6.25-1.66.33-.23.76-.42,1.16-.53l.8-.23c.2-.06.05-.73-.14-.84l-1.13-.65c-4.29-2.45-6.47-8.31-11.39-7.76-.43.05-.95.09-1.21-.03-.3-.14-.68-.89-.62-1.27.55-3.58.8-7.21.4-10.84-.36-3.26-4.83-8.16-7.4-10.16-3.11-2.41-7.8-5.33-11.69-5.97l-2.69-.44c-5.93-.98-12.33-.22-17.6,2.84-6.33,3.67-10.7,9.68-12.82,16.61-1.23,4.02-1.21,8.66-.09,12.69l1.51,5.45c1.32,4.78,1.77,9.53,1.93,14.48.04,1.16.82,9.41.88,8.92-.13.98-2.25.9-2.81,1.07-4.64,1.37-5.72,1.94-9.41,5.01l-5.37,5.18-5.8,6.18c-4.03-1.3-7.89-2.92-11.76-4.29l.07-42.1c0-.46.71-5.38.86-6.15,1.22-6.39,3.04-11.03,5.99-16.76,1.02-1.98,4.7-7.3,6.2-8.94,2-2.17,4.04-4.22,6.21-6.21,1.63-1.5,6.97-5.19,8.94-6.2,3.67-1.89,7.35-3.55,11.34-4.69,2.57-.74,5.07-1.33,7.71-1.65l2.13-.25c6.55-.78,13.98-.06,20.36,1.67,2.98.8,5.77,1.91,8.57,3.16,1.76.78,2.23,1.23,3.44,1.62Z"/>
      <path class="st48" d="M205.02,172.19v26.17c-.26.14-.57.3-1.02.44l-54.26,16.99-52.65-16.61.03-35.37c0-.47.12-.95.23-1.25l.91-.11c1.04,2.4,1.73,4.9,1.85,7.5l.15,3.26c.05,1.21,1.12.61,2.27.95l5.25,1.56c4.84,1.44,9.49,2.7,14.51,3.66.08,1.3.08,2.58-.22,3.84l-1.57,6.76c-.15.64.8,1.94,1.45,2.28,6.31,3.22,14.32,6.05,21.49,6.7l2.65.24c1.97.18,3.97.15,5.93,0l2.93-.22c5.59-.42,10.92-1.59,16.33-2.99,1.9-.49,3.8-.9,5.52-1.75l4-1.97c2.04-1-.03-2.29-1.16-5.45l-1.9-5.33c-.23-.65-.34-1.52-.4-2.24l17.82-4.48,8.48-2.31c.41-.11,1.05-.22,1.39-.27Z"/>
      <path class="st45" d="M178.9,34.53c-1.21-.39-1.68-.84-3.44-1.62-2.8-1.24-5.58-2.35-8.57-3.16-6.39-1.72-13.82-2.45-20.36-1.67l-2.13.25c-2.64.32-5.14.91-7.71,1.65-3.99,1.14-7.66,2.8-11.34,4.69-1.97,1.02-7.31,4.7-8.94,6.2-2.17,2-4.22,4.04-6.21,6.21-1.5,1.64-5.19,6.96-6.2,8.94-2.95,5.72-4.77,10.36-5.99,16.76-.15.77-.86,5.69-.86,6.15l-.07,42.1-2.63-.93s.28-.3.28-.77v-41.95s.29-2.34.29-2.34c.97-7.97,2.94-13.64,6.58-20.7,1.02-1.98,4.7-7.3,6.2-8.94,2-2.17,4.04-4.22,6.21-6.21,1.63-1.5,6.97-5.19,8.94-6.2,3.67-1.89,7.35-3.55,11.34-4.69,2.57-.74,5.07-1.33,7.71-1.65l2.13-.25c6.55-.78,13.98-.06,20.36,1.67,3.29.89,8.03,2.74,10.97,4.34l2.69,1.46c.22.12.6.48.74.65Z"/>
      <path class="st59" d="M97.35,162.55c-.11.31-.23.78-.23,1.25l-.03,35.37-2.59-.8c.11-.22.23-.63.23-1.03l.02-34.53c.8.06,1.8-.18,2.61-.27Z"/>
    </g>
    <path class="st60" d="M90.2,141.25c-.95.98-2.24,1.41-3.3,2.72s-.64,3.43.39,4.68c.56.68.76,1.56.31,2.2-.01-.85-.28-1.36-.86-2.08s-1.05-2.11-.95-3.12c.23-2.26,2.37-3.92,4.42-4.39Z"/>
    <path class="st22" d="M211.27,286.09c-.19.08-.66.25-.92.25h-11.55s.2-.18.26-.25h12.21Z"/>
    <g>
      <path class="st87" d="M212.61,35.46l-7.36.02c-.42,0-1.15-.47-1.16-.95v-14.09s-13.22-.04-13.22-.04c-.46,0-.99-1.27-1.02-1.62v-7.35s1.99-.03,1.99-.03l20.38.05c.87,0,1.45.68,1.45,1.51v21.32c0,.51-.47,1.18-1.06,1.18ZM205.51,19.43v14.38s.26.25.26.25h6.46s0-20.82,0-20.82l-.96-.05c-.19-.08-.66-.25-.92-.25h-11.3s-.25.25-.25.25l-2.66-.05-1.47-.32-3.54-.05-.02,5.73c0,.25.46.65.7.65h12.77c.22,0,.72.2.92.28Z"/>
      <path class="st87" d="M95.44,34.18c0,.78-.52,1.29-1.18,1.29h-7.22c-.64,0-1.19-.51-1.19-1.18V12.97c0-.84.57-1.52,1.45-1.52l20.17-.06h2.19s.01,7.35.01,7.35c-.1.6-.55,1.66-1.25,1.66l-12.99.03v13.74ZM104.32,12.92l-15.35.04c-.48,0-1.11.19-1.68.36v20.33c0,.21.18.41.24.41l5.21.03c.41,0,.83-.13,1.02-.24.1-.06.24-.38.24-.5v-13.92c.26-.11.85-.29,1.16-.29h12.54c.22.01.7-.41.7-.63l-.03-5.75-4.06.16Z"/>
      <path class="st107" d="M198.8,13.19h12.47l.72.48v20.14s-6.24,0-6.24,0v-13.86c0-.21-.15-.48-.25-.52-.2-.09-.7-.29-.92-.29h-12.77c-.25,0-.7-.39-.7-.65l.02-5.73,3.54.05,1.47.32,2.66.05Z"/>
      <polygon class="st22" points="205.52 33.81 205.76 33.81 211.99 33.81 212 13.67 211.27 13.19 212.23 13.24 212.23 34.05 205.77 34.06 205.52 33.81"/>
      <path class="st96" d="M205.76,33.81h-.24v-14.38c.09.04.24.32.24.52v13.86Z"/>
      <path class="st22" d="M211.27,13.19h-12.47l.25-.24h11.3c.26,0,.73.16.92.24Z"/>
      <path class="st107" d="M94.01,19.43c-.1.05-.25.33-.25.45v13.97c-.19.11-.61.25-1.02.24l-5.21-.03V13.44s2.67-.21,2.67-.21l13.87-.05.25-.27,4.06-.16.03,5.75c0,.22-.48.64-.7.64h-12.54c-.32-.01-.9.17-1.16.28Z"/>
      <path class="st17" d="M104.32,12.92l-.25.27-13.87.05-2.67.21v20.62c-.06,0-.24-.2-.24-.41V13.32c.57-.17,1.19-.35,1.68-.36l15.35-.04Z"/>
      <path class="st84" d="M93.76,33.85v-13.97c0-.12.15-.41.25-.45v13.92c0,.12-.14.44-.25.5Z"/>
    </g>
    <g>
      <path d="M97.09,199.18l52.65,16.61,54.26-16.99c.45-.14.76-.3,1.03-.44.13,0,.49.18.49.43v64.99s6.97.05,6.97.05c.68,0,1.19.5,1.19,1.2v21.3c0,.83-.58,1.52-1.45,1.52l-20.83.06c-.52,0-1.15-.03-1.54-.11v-7.7s-80.19,0-80.19,0v7.75c-.55.04-1.11.06-1.78.06l-20.59-.05c-.87,0-1.45-.69-1.45-1.53v-21.3c0-.68.54-1.19,1.19-1.19l7.21-.02v-63.99c0-.64.07-1.07.25-1.43l2.59.8ZM204.08,278.83v-13.59s.24-1.5.24-1.5v-63.77s-54.57,17.08-54.57,17.08l-54.29-17.08v64.74s.03,14.13.03,14.13l12.96.05h82.39s13.25-.06,13.25-.06ZM87.53,286.09c.24.04.91.22,1.21.23l15.58.03c1.05.16,2.73.18,4.04.16l.04-5.73c0-.24-.46-.64-.72-.64h-12.72c-.28.01-.76-.18-.95-.28v-14.63s-6.72,0-6.72,0v20.6c.06.06.24.27.24.26ZM205.52,265.47v14.39c-.07.08-.36.29-.52.29h-13.11c-.36,0-.75.36-.76.64l-.02,5.21c0,.2.37.56.65.56l7.04-.21h11.55c.26,0,.73-.17.92-.25l.96-.06v-20.81s-6.46,0-6.46,0l-.25.24Z"/>
      <path class="st19" d="M158.53,182.05c-.46.23-.58.8-.35,1.25.78,1.54,1.18,2.58,1.73,4.14.19.54.64,1.14.81,1.72l.38,1.33c-.08-.28,1.17,3.35,1.22,3.29.33.87.73,1.67,1.25,2.4-.33.16-.86.36-1.29.43-7.98,1.21-13.61,1.87-21.73.56-3.79-.61-7.33-1.65-10.89-3.01-1.14-.44-7.92-2.94-7.83-4.03.96-3.27,1.73-6.76,2.02-10.3l4.41.66,2.76.35,1.94.27,1.57.24c.62.1,1.29.08,1.94.12.59.03,1.34.2,1.92.19,4.01-.05,1.34.71,5.53.2,1.7-.21.39.38,3.21.38h7.22c.84,0,1.6-.15,2.55-.3.41-.06,1.24.12,1.65.12Z"/>
      <path class="st35" d="M154.68,48.24c1.3.71-.29,1.56,1.68,3.73.42.46.77.92,1.15,1.31l1.09,1.09c.96.96,1.77,1.95,2.53,2.95.03.4-.22.8-.56.96l-2.18.9-1.7.32-1.3.67c-2.36,1.94-2.46,1.78-3.72,4.51l-2.23.08c-.22,0-.76.2-.78.24-1.05.01-2.18,0-3.32.08l-3.6.25c-.65.05-1.4.08-1.93.15.14.01-.43-.3-.56-.28l-3,.51.11-1.18.21-2.73c.03-.37.24-.99.37-1.29l.75-.39-.52-.22c.08-.37.14-.91.08-1.4l-.39-3.11c-.1-.78,1.34-1.1,1.26-1.92,2.22-1.86,6.1-4.23,8.92-4.71l2.69-.46c1.62-.27,3.38,0,4.95-.06Z"/>
      <path class="st2" d="M177.94,86.36c.64,1.2,4.28,4.77,5.55,4.91.07,0,.06-.31-.02-.38-1.24-1.14-3.21-3-4.47-4.35-.35-.37-.53-.52-.8-.63l.97-1.71c.48-.76.89-1.67,1.26-2.52l.74-1.68-.14-2.74c1.88-.28,3.32.22,4.54,1.45.73.35,1.33.9,1.65,1.7l3.16,3.07,1.11,1.01-3.07,1.38c-1.56.08-3.1-.05-4.53-.68-.2-.09-.72-.03-.82.14-.08.13-.12.58-.04.71,1.67,2.94,2.59,2.34,3.35,4.08l1.18,2.7c.57.33,1.26,1.68.81,2.18-.22.24-1.1.19-1.44.14-4.98-.73-7.63-3.14-10.52-7.17.18-.86.77-1.48,1.55-1.61ZM186.01,82.68c.11.07.52.16.48.06-.53-1.68-5.23-3.51-5-2.78.27.88.73.5,1.88,1.17l2.64,1.55Z"/>
      <path class="st2" d="M162.11,49.64c2.12.18,6.71,2.84,8.3,3.96,1.97,1.38,8.43,7.59,7.92,10.18-1.65-1.59-2.86-2.89-4.61-4.47-.09-.09-.79-.09-.71,0l.24.27,4.64,5.03c.13.14.51.37.66.44.28,1.18.38,2.23.35,3.3-.34-.14-.65-.4-.97-.74-1.82-1.89-3.77-3.58-5.98-5-.75-.48-4.71-2.74-5.29-2.16l.04-.26.73-.55c-1-3.52-2.06-4.57-4.01-7.27l-1.56-2.16c-.05-.07-.22-.45-.15-.47l.41-.1Z"/>
      <path class="st2" d="M178.93,69.78c-.34,1.32-.48,2.49-.58,4.15-.9-.46-1.79-1.06-2.68-1.62l-1.76-1.11c-.87-.55-1.72-1.04-2.65-1.44l-2.02-.86c-3.14-1.34-7.29-2.48-10.48-2.93-.36-.76,3.2-1.7,3.7-1.8l4.27-.85c.74-.15,1.39-1.24,1.07-1.78-.14-.23-.71-.37-.94-.42-.14-.03-.2-.34-.21-.48l2.62,1.33c3.35,1.7,6.8,4.76,9.06,7.46.15.18.59.36.61.34Z"/>
      <path class="st3" d="M174.58,193.38l-.75-1.71-.55-1.24c-.8-1.81-.69-2.25-1.63-4.3l-1.15-2.59c-.29-.65-.58-1.51-.84-2.22l.61-.5c.64-.21,1.91-.64,2.62-.78l1.47-.29c.3-.06.71-.16,1.03-.25,1.1-.29.2.2,1.31,3.25l2.47,6.72c.09.25.43.67.73,1.07-1.2,1.46-3.55,2.43-5.32,2.82Z"/>
      <path class="st43" d="M168.35,181.06c-.37-.09.34,2.3.36,2.33.66,1.56,1.28,3.09,1.8,4.66.16.48.39,1.04.6,1.55l.8,1.9.75,1.8c.06.14.45.2.56.18l.19.02c-.23.56-.9.8-1.52.81-.12-.06-.72-.45-.81-.67l-1.47-3.7-.85-2.11c-.88-2.17-1.67-4.26-2.27-6.43l1.1-.39c.17-.06.65.03.76.07Z"/>
      <path class="st116" d="M166.48,181.38c.6,2.16,1.39,4.26,2.27,6.43l.85,2.11,1.47,3.7c.09.23.69.61.81.67-.48.26-1.36.46-1.87.5-.16-.57-.37-1.17-.62-1.8l-.89-2.23-2.4-5.99-.64-2.24c-.11-.39-.18-.88-.22-1.24.29-.11.93.1,1.23.09Z"/>
      <path class="st93" d="M165.23,195.97l-.96.21c-.04-.41-.21-.84-.41-1.24-.1-.6-.29-1.22-.7-1.72-1.09-1.32-.04-.63-1.13-3.39-.94-2.38-.57-.91-1.49-3.39l-.72-1.95c-.3-.8-.45-1.66-.55-2.43.24-.04.69-.17.93-.27l.66,2.31c.18.65.48,1.4.73,2.05l1.31,3.29,1.9,5.04c.2.52.36,1.03.43,1.51Z"/>
      <path class="st27" d="M161.58,181.87s-.12.44-.08.56l.5,1.54.89,2.74c.23.71.52,1.42.8,2.12l.62,1.52.86,2.06c.48,1.15.94,2.21,1.25,3.32l-1.2.24c-.07-.47-.23-.99-.43-1.51l-1.9-5.04-1.31-3.29c-.26-.65-.55-1.41-.73-2.05l-.66-2.31c.42-.17.91-.1,1.38.09Z"/>
      <path class="st76" d="M170.26,180.82l-.61.5c.26.71.55,1.57.84,2.22l1.15,2.59c.95,2.05.84,2.49,1.63,4.3l.55,1.24.75,1.71c-.35.12-.78.15-1.18.11l-.19-.02c-.19-.67-.43-1.4-.74-2.13l-2.12-5.12-1.34-3.69c-.18-.49-.32-1.03-.42-1.47.09-.08.39-.31.51-.35.35.04.91.2,1.17.11Z"/>
      <path class="st110" d="M159.27,182.05c.11.77.25,1.63.55,2.43l.72,1.95c.92,2.49.55,1.02,1.49,3.39,1.09,2.77.04,2.08,1.13,3.39.41.5.6,1.12.7,1.72.2.39.37.83.41,1.24-.17.04-.52,0-.71,0-.51-.73-.91-1.53-1.25-2.4-.04.07-1.3-3.57-1.22-3.29l-.38-1.33c-.17-.58-.62-1.18-.81-1.72-.55-1.55-.95-2.6-1.73-4.14-.23-.45-.11-1.02.35-1.25h.73Z"/>
      <path class="st91" d="M163.95,181.68c-.11.21-.15.84-.05,1.13l2.29,6.2.97,2.32,1.42,3.58c-.22.21-.67.53-.94.57-.04-.32-.14-.83-.28-1.17l-2.07-5.13-.9-2.47-.85-2.48-.91-2.72c.34-.23,1.06-.1,1.34.17Z"/>
      <path class="st41" d="M160.91,49.17l1.2.47-.41.1c-.07.02.1.4.15.47l1.56,2.16c1.95,2.7,3,3.75,4.01,7.27l-.73.55h-1s-.46-.48-.46-.48l.99-.35c-.41-1.54-1.08-3.14-2.12-4.48l-1.99-2.59c-.71-.92-1.29-1.88-1.81-2.93l.62-.19Z"/>
      <path class="st26" d="M178.9,68.35c.08.57.12,1.11.03,1.44-.01.02-.46-.17-.61-.34-2.26-2.7-5.71-5.76-9.06-7.46l-2.62-1.33c0-.05,0-.15,0-.2.59-.58,4.54,1.68,5.29,2.16,2.22,1.42,4.17,3.1,5.98,5,.33.34.64.6.97.74Z"/>
      <path class="st78" d="M170.02,194.79c-.19.05-.57.19-.77.17-.21-.71-.48-1.47-.79-2.25l-2.13-5.29c-.27-.67-.52-1.39-.76-2.08l-1.29-3.69.98-.36c.03.35.11.85.22,1.24l.64,2.24,2.4,5.99.89,2.23c.25.63.46,1.23.62,1.8Z"/>
      <path class="st37" d="M162.12,181.84l.59,2.03c.17.57.4,1.21.62,1.78l1.6,4.13,1.32,3.42.87,2.29c-.18.07-.52.21-.7.24-.3-1.11-.77-2.17-1.25-3.32l-.86-2.06-.62-1.52c-.29-.7-.57-1.4-.8-2.12l-.89-2.74-.5-1.54c-.04-.12.06-.54.08-.56l.54-.03Z"/>
      <path class="st70" d="M161.55,58.61c0,.19.19.51.32.63h.48c.02.13-.35.64-.58.7l-2.54.72c-2.17.61-3.88,1.75-5.09,3.59l-.66,1.01c-.33,0-.59,0-.72-.01.2-1.1.88-1.99,1.75-2.83,2.12-2.05,2.84-2.12,5.73-2.9.17-.05.48-.42.48-.52.21-.13.56-.31.83-.38Z"/>
      <path class="st34" d="M156.12,48.19c0,.08-.02.17,0,.23.12.56.24,1.8.58,2.26l2.29,3.05c1.23,1.1,2.3,2.44,2.98,3.94l-.09,1.55c-.13-.11-.31-.44-.32-.63-.01-.38-.15-1.02-.43-1.29-.76-1-1.58-1.99-2.53-2.95l-1.09-1.09c-.38-.38-.73-.84-1.15-1.31-1.97-2.18-.38-3.02-1.68-3.73l1.44-.04Z"/>
      <path class="st31" d="M169.25,194.96l-.67-.05-1.42-3.58-.97-2.32-2.29-6.2c-.11-.28-.06-.92.05-1.13.09,0,.25,0,.33-.03l1.29,3.69c.24.69.49,1.41.76,2.08l2.13,5.29c.31.78.58,1.54.79,2.25Z"/>
      <path class="st9" d="M157.59,48.51c.16,1.2.62,2.47,1.44,3.47l2.83,3.44c.87,1.05,1.52,2.27,1.54,3.56l-.06.26h-.75s-.24-.01-.24-.01h-.24l.46-1.37c-1.42-3.03-2.85-3.81-4.93-6.46-.9-1.15-.34-3.3-1.53-2.97-.01-.06,0-.16,0-.23.56-.02,1.12.18,1.48.32Z"/>
      <path class="st29" d="M158.75,65.97c-.37-.05-.73-.22-.92-.23,1.87-3,9.7-1.99,9.03-4.61.23.04.8.19.94.42.33.54-.33,1.63-1.07,1.78l-4.27.85c-.51.1-4.07,1.04-3.7,1.8Z"/>
      <path class="st16" d="M167.63,195.48c-.12.02-.38,0-.5.01l-.87-2.29-1.32-3.42-1.6-4.13c-.22-.57-.46-1.22-.62-1.78l-.59-2.03.48-.33.91,2.72.85,2.48.9,2.47,2.07,5.13c.14.34.24.85.28,1.17Z"/>
      <path class="st77" d="M136.45,60.43l.49.07c-.13.31-.34.92-.37,1.29l-.21,2.73-.11,1.18,3-.51c.13-.02.7.29.56.28l-3.82.53-1.02-.15.22-2.61c.05-.64.07-1.27.09-1.83.06-.08.18-.22.22-.3l.27-.59.67-.08Z"/>
      <path class="st61" d="M166.69,60.19l-.04.26s0,.15,0,.2c.01.14.07.45.21.48.67,2.62-7.16,1.61-9.03,4.61h-.76c.03-1.21,3.23-2.34,4.34-2.62l2.93-.73c.54-.13,1.46-.64,1.7-1.13.09-.24.13-.88.14-1.07h.5Z"/>
      <path class="st111" d="M131.86,62.56c-.01.38-.03.87-.08,1.31l-.37,3.28c-1.4.33-2.67,1.5-2.12.02l.49-1.32c.39-1.07.67-2.09,1.1-3.02l.98-.27Z"/>
      <path class="st85" d="M160.91,49.17l-.62.19c.53,1.05,1.1,2.01,1.81,2.93l1.99,2.59c1.03,1.34,1.71,2.94,2.12,4.48l-.99.35h-.72c.04-.13.13-.36.16-.48l.83-.2c-1.35-4.73-4.41-6.03-6.02-10.11v-.24c.42.1,1.12.36,1.44.49Z"/>
      <path class="st49" d="M158.03,48.44l.24.24c.48,1.87.71,2.38,2.03,3.93l1.36,1.59c.62.72,3.25,4.63,2.22,4.74l-.48.05c-.02-1.29-.67-2.51-1.54-3.56l-2.83-3.44c-.82-1-1.28-2.27-1.44-3.47l.44-.07Z"/>
      <path class="st39" d="M137.18,59.89l.52.22-.75.39-.49-.07-.41-.27c-.14-.09-.57.2-.56.3l-.22-.02h-.48s-.49-.09-.49-.09l-.07-2.35c.3-.96.7-1.72,1.46-2.04l.37,3.63c.03.33.91.38,1.13.28Z"/>
      <path class="st14" d="M173.21,193.46c-.11.02-.5-.04-.56-.18l-.75-1.8-.8-1.9c-.21-.51-.45-1.07-.6-1.55-.51-1.57-1.14-3.1-1.8-4.66-.01-.03-.73-2.42-.36-2.33h.24c.1.43.25.98.42,1.47l1.34,3.69,2.12,5.12c.3.73.55,1.45.74,2.13Z"/>
      <path class="st34" d="M137.18,59.89c-.22.1-1.1.05-1.13-.28l-.37-3.63c.37-.5.71-.89,1.08-1.23l1.37-1.28c.09.82-1.36,1.13-1.26,1.92l.39,3.11c.06.49,0,1.03-.08,1.4Z"/>
      <path class="st44" d="M154.87,65.02l.05.45c-.48-.11-1.08-.21-1.44-.22l.66-1.01c1.21-1.84,2.92-2.97,5.09-3.59l2.54-.72c.23-.07.59-.58.58-.7h.24c.06.05.18.73.07.88l-4.6,1.57c-1.12.38-2.16,1.29-2.86,2.12l-1,1.17.66.04Z"/>
      <path class="st106" d="M165.69,60.19c-.21,1.75-2.14,1.87-3.73,2.22l-2.91,1.03c-.48.17-1.29.69-1.87,1.01-.3.17-.42.96-.34,1.28l-.96-.23c2.89-4.42,9.19-2.7,9.11-5.79h.24l.46.48Z"/>
      <path class="st119" d="M164.2,59.73l-.02.82c-.71.34-1.3.65-1.96.86l-2.98.96c-1.35.43-3.53,1.71-3.61,3.12l-.72-.03-.05-.45.95-1.06c2.14-2.38,5.15-2.39,7.99-3.65l-.33-.83.73.26Z"/>
      <path class="st102" d="M166.19,60.19c-.01.19-.04.83-.14,1.07-.23.49-1.16,1-1.7,1.13l-2.93.73c-1.12.28-4.31,1.41-4.34,2.61-.06,0-.18,0-.24,0-.08-.32.04-1.11.34-1.28.58-.32,1.39-.84,1.87-1.01l2.91-1.03c1.59-.35,3.52-.47,3.73-2.22h.5Z"/>
      <path class="st33" d="M177.94,86.36l.26-.44c.27.11.46.26.8.63,1.26,1.34,3.23,3.21,4.47,4.35.08.07.09.39.02.38-1.27-.15-4.91-3.72-5.55-4.91Z"/>
      <path class="st34" d="M160.72,58.99c0,.1-.31.48-.48.52-2.89.78-3.6.84-5.73,2.9-.87.84-1.55,1.72-1.75,2.83l-1.96-.19c-.64-.06-1.55-.06-2.15-.05.02-.04.56-.23.78-.24l2.23-.08c1.75-.06.22-.16,2.24-2.35,1.09-1.18,2.22-2.08,3.79-2.51l3.04-.83Z"/>
      <path class="st105" d="M178.33,63.77l.22,1.27c-.15-.07-.53-.3-.66-.44l-4.64-5.03-.24-.27c-.08-.09.62-.08.71,0,1.74,1.59,2.96,2.89,4.61,4.47Z"/>
      <path class="st109" d="M164.99,59.71c.08,3.09-6.22,1.38-9.11,5.79h-.24c.08-1.42,2.25-2.69,3.61-3.13l2.98-.96c.66-.21,1.26-.52,1.96-.86l.02-.82c.09,0,.23-.02.3-.02h.48Z"/>
      <path class="st100" d="M133.25,60.14c.02.1.07.58.22.58h.58s.72-.04.72-.04c.14,0,.46-.18.48-.23l.22.02.31.05-.27.59c-.5.16-1.01.35-1.49.57l-.43.15c-.59.2-1.18.45-1.73.75l-.98.27c.56-1.21,1.4-2.13,2.37-2.69Z"/>
      <path class="st128" d="M133.59,61.82l-.24.31c-.47.08-.75.6-.78,1.14l-.2,3.66-.96.23.37-3.28c.05-.45.07-.94.08-1.31.55-.3,1.13-.54,1.73-.75Z"/>
      <path class="st53" d="M159.47,48.68v.24c-.71.06.7,2.35.75,2.41l2.11,2.64c.74.93,1.35,1.83,1.72,2.86-.29-.28-.55-.67-.86-1.11-.8-1.12-1.64-2.16-2.52-3.23-2.18-2.62-1.15-2.61-2.41-3.81l-.24-.24c.48.08,1.13.16,1.44.24Z"/>
      <path class="st30" d="M133.09,66.7c-.29.1-.57.2-.71.23l.2-3.66c.03-.55.31-1.07.78-1.14l-.09,2.55-.17,2.02Z"/>
      <path class="st46" d="M133.83,66.13l-.26.55-.48.02.17-2.02.09-2.55.24-.31.43-.15c.02.8.01,1.66-.05,2.54l-.14,1.92Z"/>
      <path class="st83" d="M135.99,66l-2.42.67.26-.55c.12.02.57-.36.59-.59l.28-3.42c.02-.25.42-.68.58-.71-.02.56-.03,1.18-.09,1.83l-.22,2.61,1.02.15Z"/>
      <path class="st18" d="M134.21,58.01l.07,2.35-.23.35h-.58c-.15,0-.2-.47-.22-.57-.05-.91.34-1.73.96-2.13Z"/>
      <polygon class="st11" points="204.08 278.83 190.84 278.89 108.44 278.89 95.49 278.84 95.45 264.7 95.45 199.96 149.75 217.04 204.31 199.96 204.32 263.74 204.08 265.23 204.08 278.83"/>
      <path class="st107" d="M211.27,286.09h-12.21c-.06.06-.26.25-.26.25l-7.04.21c-.28,0-.65-.36-.65-.56l.02-5.21c0-.28.4-.65.76-.65h13.11c.16,0,.45-.2.52-.28s.24-.37.24-.49v-13.9s6.23,0,6.23,0v20.12s-.72.5-.72.5Z"/>
      <path class="st107" d="M94.01,279.86c.19.1.67.29.95.29h12.72c.26-.01.72.39.72.63l-.04,5.73c-1.31.03-2.99,0-4.04-.16-.2-.08-.65-.26-.93-.26l-13.44-.04-2.42-.2v-20.39s6.24.01,6.24.01v13.89c0,.15.14.43.25.49Z"/>
      <path class="st22" d="M94.01,279.86c-.1-.06-.25-.34-.25-.49v-13.89s-6.23-.01-6.23-.01v20.39s0,.24,0,.24c0,0-.18-.2-.24-.26v-20.6s6.72,0,6.72,0v14.63Z"/>
      <polygon class="st22" points="211.27 286.09 212 285.6 211.99 265.47 205.76 265.47 205.52 265.47 205.77 265.22 212.23 265.23 212.23 286.04 211.27 286.09"/>
      <path class="st20" d="M104.33,286.35l-15.58-.03c-.3,0-.97-.19-1.21-.23v-.24l2.42.2,13.44.04c.28,0,.73.18.93.26Z"/>
      <path class="st21" d="M205.52,279.86v-14.39h.24v13.9c0,.13-.17.41-.24.49Z"/>
      <path class="st24" d="M161.55,58.61c-.27.08-.62.25-.83.38l-3.04.83c-1.56.43-2.7,1.32-3.79,2.51-2.01,2.18-.48,2.28-2.24,2.35,1.26-2.73,1.36-2.57,3.72-4.51l1.3-.67,1.7-.32,2.18-.9c.34-.16.59-.57.56-.96.28.28.42.91.43,1.29Z"/>
      <path class="st51" d="M186.01,82.68l-2.64-1.55c-1.15-.67-1.6-.29-1.88-1.17-.23-.73,4.47,1.1,5,2.78.03.1-.37,0-.48-.06Z"/>
      <g>
        <path class="st13" d="M184.41,127.32l.05.99-.43,2.07c1.67,1.31-.44,2.13.46,3.33-.55.97-.06,2.1.02,4.1.02.42-.04.91.04,1.37.11.68.02,1.28-.23,1.9.09.93.23,2.04.12,2.93-.04.33-.24.84-.13,1.09.7,1.57.53,2.49.5,3.96l-.04,2.12c0,.39.09.92.15,1.28-.04.34-.01.64.08,1.15s-.05,1.25-.03,1.86l.14,3.96v1.59c-.01.49-.86,1.09-1.35,1.43-1.14.79-2.21,1.3-3.66,1.06-3.95,2.05-1.34.61-5.47,1.67l-2.15.55c-.44.11-1.44-.08-1.85.13-1.4.72-2.84.81-4.46.66-1.48.61-3.1.95-4.7.52-.41.2-1.11.64-1.48.64h-1.54c-1.26.01-2.48.13-3.74.31-1.36-.12-2.73-.11-4.09.02-.95-.28-1.93-.4-2.92-.35l-1.89.09c-2.62.12-.63-.74-3.69-.49-2.44.2-1.91-.49-3.77-.49-.52,0-1.37.03-1.77-.09l-1.57-.49c-1.17-.36-2.39-.43-3.6-.44-1.39-.46-2.78-.81-4.31-1.05s-.22-.31-3.36-.99c-.74-.16-1.55-.48-2.31-.75-3.54-1.27-3.7-.23-5.46-1.92l-2.68-.61c-.17-.68-.47-.91-.87-1.18-.54-.37-.43-4.98-.32-4.51l-.39-1.76c-.11-.51.15-1.21-.06-1.75-.32-.86-.94-3.8-1.02-4.76-1.35-2.09-.5-2.69-2.16-3.63-1.34-.77-3.61-3.65-3.85-3.86l-2.38-2.11c-.34-.3-.58-1.1-.92-1.22-.64-.22-1.15-.46-1.63-.81l-1.68-1.23c-.55-.4-1.3-1.2-1.89-1.33-2.94-.67-1.01-.44-3.87-1.55-.48-.19-1.15-.26-1.61-.26h-.26l-.11-1.59c-.13-1.91.11-6.35.75-8.26l2.52.94,9.47,3.45c9.7,3.53,22.98,6.7,33.2,7.26l4.31.24,4.08.08c1.53.03,3.04.02,4.55-.07l4.28-.26c5.12-.31,10.07-1.03,15.15-1.75.81-.11,1.52-.22,2.28-.38l11.9-2.52c.53-.11,1.22-.2,1.64-.27Z"/>
        <path class="st4" d="M185.36,127.07c.14.13.37.59.36.83l-.21,4.52c-.03.72-.02,1.38.02,2.18.02.41-.11,1-.14,1.4l-.13,2.08c.04.28.32.91.3,1.18-.62,2.91.38,1.79-.14,4.14-.13.57.16,1.24.17,1.78v1.79s.17,3.87.17,3.87l.18,4.99.1,2c.04.7.58,1.83.44,2.5l-.34,1.62c-.14.69-1.16,1.5-1.82,1.99-.43.32-.99.44-1.54.65l-1.15.44c-.62.07-1.51.12-2.06.34-.83.34-1.51.43-2.32.64l-1.11.29-2.5.61c-2.38.58-3.09.37-5.01.9-3.11.84-3.44.15-6.25.81-.86.2-1.76.17-2.6.33l-1.39.27-3.23-.14-2.38.09-3.62-.14-2.07-.09-3.39-.19c-.46-.03-1.29-.38-1.73-.34-2.21-.63-1.2.2-3.8-.52l-1.69-.47c-1.48.48-2.01-.68-2.88-.01-1.83-.76-3.04-.51-4.8-1.02-.82-.24-1.56-.53-2.37-.68-1.63-.3-3.12-.78-4.67-1.39-2.84-.04-3.28-1.07-5.29-1.6-.92-.24-1.95-.39-2.72-.88-2.73-1.72-1.09-.43-2.48-2.72l-.28-2.55c-.07-.61-.04-1.44-.07-2.13-.12-2.82-.56-5.81-1.92-8.27-.25-.44-.53-1.38-.84-1.73l-2.7-3.14c-.36-.41-.95-.87-1.36-1.27l-1.16-1.14-1.25-1.17-2.07-1.86c-.46-.41-1.1-.8-1.62-1.19-.59-.45-1.14-.82-1.86-1.03-3.35-.96-.9-1.19-5.42-1.98l-.07-1.18c.46,0,1.13.07,1.61.26,2.86,1.12.93.88,3.87,1.55.59.14,1.35.93,1.89,1.33l1.68,1.23c.48.35.99.59,1.63.81.34.12.58.92.92,1.22l2.38,2.11c.24.21,2.51,3.1,3.85,3.86,1.66.95.81,1.55,2.16,3.63.08.97.69,3.9,1.02,4.76.2.54-.06,1.24.06,1.75l.39,1.76c-.1-.47-.22,4.14.32,4.51.4.27.7.5.87,1.18l2.68.61c1.76,1.69,1.92.65,5.46,1.92.76.27,1.56.59,2.31.75,3.14.69,1.78.75,3.36.99s2.92.59,4.31,1.05c1.2,0,2.43.08,3.6.44l1.57.49c.39.12,1.24.09,1.77.09,1.86,0,1.33.69,3.77.49,3.06-.25,1.06.62,3.69.49l1.89-.09c.99-.05,1.97.07,2.92.35,1.35-.13,2.72-.14,4.09-.02,1.26-.17,2.48-.29,3.74-.3h1.54c.38-.01,1.08-.45,1.48-.65,1.6.43,3.22.09,4.7-.52,1.62.15,3.06.07,4.46-.66.41-.21,1.41-.02,1.85-.13l2.15-.55c4.14-1.07,1.53.38,5.47-1.67,1.45.24,2.53-.27,3.66-1.06.48-.34,1.33-.94,1.34-1.43v-1.59s-.13-3.96-.13-3.96c-.02-.62.13-1.34.03-1.86s-.12-.81-.08-1.15c-.07-.36-.16-.88-.15-1.28l.04-2.12c.03-1.47.2-2.38-.5-3.96-.11-.25.09-.76.13-1.09.11-.89-.03-2-.12-2.93.25-.62.34-1.22.23-1.9-.07-.46-.02-.95-.04-1.37-.07-2-.56-3.13-.02-4.1-.89-1.2,1.21-2.02-.46-3.33l.43-2.07-.05-.99c.25-.04.7-.18.96-.25Z"/>
        <path class="st25" d="M186.33,126.8c.19.07.44.38.44.59l-.06,2.1c-.1,3.47-.53,1.62-.26,5.61.05.71.07,1.54.06,2.26l-.03,2.67-.02,1.77c-.02,1.47.13,2.86.19,4.32l.07,1.61-.31.69c.33.66.32,1.15.36,1.89l.1,2.16c.07,1.51-.03,2.89.38,4.31l.03,3.73c.01,1.39-.12,3.09-1.47,3.79-1.9.37-.49.74-2.4,1.06-.25.04-.7.22-.98.3l-1.84.53-1.5.44c-1.46.43-2.49.53-3.12.95-.19-.07-.59-.1-.83-.05l-3.06.65-2.4.47-1.33.25c-.44.08-1.02.21-1.47.27l-2.85.36-3.07.32-4.44.33c-.68.05-1.37.08-2.07.09l-2.61.05c-.67.01-1.51.04-2.14-.02l-3.43-.32-1.84-.13-1.53-.1c-.62-.04-1.25-.1-1.87-.18l-1.56-.22c-.95-.14-1.84-.31-2.79-.38-2.45-.17-1.71-.36-3.86-.67-1.11-.16-2.16-.39-3.25-.71l-3.27-.8-1.76-.43c-1.16-.28-2.25-.62-3.36-.96l-2.73-.84c-1.43-.44-2.75-.88-4.26-1.28-1.34-.35-1.9-.92-2.59-1.87-.21-.28-.72-.8-.78-1.12-.09-.48-.34-1.37-.38-1.84l-.31-4.53c-.04-.57-.06-1.17-.16-1.71l-.56-3.35c-.54-1.07-.93-2.05-1.29-3.13l-.98-1.37c-.36-.51-.95-1.15-1.42-1.59l-1.37-1.29-1.88-1.76c-.39-.5-.8-.93-1.27-1.34l-1.42-1.25c-.48-.42-1.08-.8-1.66-1.15l-1.92-1.18-2.93-1.45-2.63-.7c-.12-.65-.22-1.49-.27-2.17h.26l.07,1.18c4.52.78,2.07,1.01,5.42,1.98.72.21,1.27.58,1.86,1.03.52.39,1.16.78,1.62,1.19l2.07,1.86,1.25,1.17,1.16,1.14c.41.41,1,.86,1.36,1.27l2.7,3.14c.31.36.6,1.29.84,1.73,1.36,2.46,1.8,5.45,1.92,8.27.03.7,0,1.52.07,2.13l.28,2.55c1.39,2.29-.25,1,2.48,2.72.77.48,1.8.64,2.72.88,2.01.53,2.45,1.56,5.29,1.6,1.55.61,3.04,1.09,4.67,1.39.81.15,1.55.44,2.37.68,1.76.51,2.97.27,4.8,1.02.22.09.62.27.84.3l1.14.14c2.86.36.53.53,3.75.6.46.01,1.01.1,1.5.19.28.05.84-.21,1.12-.24.44-.04,1.26.32,1.73.34l3.39.19,2.07.09,3.62.14,2.38-.09,3.23.14,1.39-.27c.84-.16,1.74-.13,2.6-.33,2.81-.66,3.14.04,6.25-.81,1.92-.52,2.63-.32,5.01-.9l2.5-.61,1.11-.29c.81-.21,1.48-.3,2.32-.64.55-.22,1.44-.27,2.06-.34l1.15-.44c.54-.21,1.11-.33,1.54-.65.66-.49,1.68-1.31,1.82-1.99l.34-1.62c.14-.67-.41-1.8-.44-2.5l-.1-2-.18-4.99-.17-3.87v-1.79c0-.53-.3-1.21-.17-1.78.52-2.35-.48-1.24.14-4.14.02-.27-.26-.9-.3-1.18l.13-2.08c.03-.41.16-1,.14-1.4-.04-.79-.05-1.45-.02-2.18l.21-4.52c.01-.24-.21-.71-.36-.83l.97-.28Z"/>
        <path class="st122" d="M194.9,124.66l-.31,3.37c-.12,1.24-.28,2.55-.28,3.86l-.04,15.1c.38,2.4.19,3.22.39,6.04l.15,2.11.23,2.62.25,2.91c.23,2.59.38,5.08-.67,7.52-.44,1.03-.99,2.02-1.89,2.69-1.34,1.13-2.77,1.84-4.42,2.38l-3.22,1.06c-2.3.75-2.84.74-4.72,1.19l-3.72.89c-.88.21-1.75.28-2.64.49l-2.7.64-8.46,1.22c-.91.13-1.77.18-2.71.21l-5.05.2-1.11.02-4.86-.03c-.82,0-1.63-.04-2.43-.08l-3.33-.19c-.74-.04-1.58-.14-2.33-.26l-2.34-.35-1.89-.19c-2.75-.28-5.33-.87-8-1.44l-2.15-.46-4.68-1.25-2.49-.63c-1.32-.34-2.58-.73-3.86-1.19l-3.58-1.26c-2.9-1.02-7.34-3.44-8.09-6.7-1.16-4.99-.03-6.64-.43-10.43l-.21-1.97c-.46-4.3-2.41-7.25-6.14-9.38l-3.11-1.77c-.4-.23-1.11-.34-1.54-.35-.21-.59-.56-1.74-.72-2.4h.27v.24l.21.69c.14.46.57.71,1.08.91,2.59,1.03,4.88,2.47,6.94,4.32,3.27,2.94,3.92,7.09,3.83,11.29l-.06,2.7c-.04,1.95.08,3.96.67,5.84,1.16,3.68,5.74,5.57,9.07,6.7l2.18.74,6.34,1.79,3.59.97c3.58.96,7.14,1.58,10.79,2.08l1.69.23,2.38.29,2.37.24,3.13.22c1.36.1,2.74.11,4.07.13l3.14.04,2.35-.05c2.47-.05,4.79-.2,7.23-.45l2.28-.23,4.68-.75,2.05-.35c2.6-.45,5.1-.99,7.63-1.71l4.15-1.17,2.2-.66c2.53-.76,4.39-1.44,6.35-3.27.95-.89,1.66-2.08,1.87-3.39.25-1.6.37-3.23.26-4.84l-.17-2.4-.3-3.83-.24-3.59-.27-5.05-.1-5.4.06-6.59c.01-1.51-.02-2.99.11-4.45l.42-4.86-.23-.25c.29-.16.74-.26,1.09-.31Z"/>
        <path class="st6" d="M194.26,173.37c-.04-.75,1.03-.62,1.51-1.35.31-.48,1-1.39,1.14-1.92l.84-3.07c.12-.43.1-1.28.09-1.78l-.07-2.26c.03-1.18-.06-2.31-.24-3.53-.34-2.25,0-3.31-.62-5.4-.07-.22-.77-.34-.93-.33l-.55-.73c.29.12.66.29,1,.48l2.61,1.41c1.31.71,2.8,1.32,4.23,1.83l.18,1.27c.52,3.69,1.46,8.65,3.02,12.11l-10.51,2.91-1.72.38Z"/>
        <path class="st6" d="M195.7,140.55c-.03-.29-.06-.64-.06-1.01l-.05-2.87.02-3.58c0-1.13.1-2.23.2-3.35l.44-4.68.06-.63c.01-.13-.3-.21-.4-.25l9.56-2.97c.21-.07.6.02.72.04-.03,0-.98,3.76-1.1,4.43-.53,2.99-.8,5.79-1.05,8.85h-3.07c-1.66.02-2.97.75-3.95,2.04-.67.87-.78,2.01-.38,3.06-.2.26-.67.71-.93.93Z"/>
        <path class="st38" d="M92.29,139.78c2.93,1,5.68,2.58,8.12,4.64,2.06,1.75,2.18,2.65,3.44,4.5.74,3.2,1.05,4.01,1.04,7.7,0,1.48-.17,2.95-.02,4.42.06.62.19,1.28.18,1.77-.03,1.62.68,3.11,1.97,4.3.89.82,1.94,1.66,3.06,2.17,4.19,1.9,12.87,4.4,17.37,5.39l2.08.46,2.7.51,4.34.75c.82.14,1.7.26,2.56.34l5.93.58c1.13.11,2.24.15,3.38.18l4.59.11c.61.01,1.35-.05,2-.07l3.5-.11c1.25-.04,2.54-.15,3.76-.29l4.08-.49,3.11-.47c2.32-.35,4.57-.74,6.84-1.33l4.33-1.13c2.7-.7,5.29-1.44,7.88-2.43,1.68-.64,3.29-1.65,4.23-3.19,1.03-1.69,1.38-3.72,1.24-5.72l-.35-4.77-.32-4.11-.24-3.59-.2-4.05-.07-1.71v-9.85c0-1.85.11-3.68.29-5.5l.36-3.64.34-.18.23.25-.42,4.86c-.13,1.46-.09,2.94-.11,4.45l-.06,6.59.1,5.4.27,5.05.24,3.59.3,3.83.17,2.4c.12,1.6,0,3.24-.26,4.84-.21,1.31-.92,2.49-1.87,3.39-1.96,1.84-3.82,2.52-6.35,3.27l-2.2.66-4.15,1.17c-2.53.71-5.03,1.26-7.63,1.71l-2.05.35-4.68.75-2.28.23c-2.44.25-4.76.4-7.23.45l-2.35.05-3.14-.04c-1.33-.02-2.7-.03-4.07-.13l-3.13-.22-2.37-.24-2.38-.29-1.69-.23c-3.66-.5-7.21-1.12-10.79-2.08l-3.59-.97-6.34-1.79-2.18-.74c-3.33-1.13-7.91-3.01-9.07-6.7-.59-1.88-.71-3.88-.67-5.84l.06-2.7c.09-4.2-.56-8.35-3.83-11.29-2.06-1.85-4.35-3.3-6.94-4.32-.51-.2-.94-.45-1.08-.91Z"/>
        <path class="st58" d="M194.73,143.89l.25,2.43c.14,1.37.04,3.61.24,4.78.06.35-.04,1.07,0,1.43l.17,2.2.27,3.56.22,2.92c.27,3.58.23,8.03-2.96,10.31-.84.6-1.79,1.24-2.68,1.59l-2.65,1.06c-.9.36-1.82.62-2.78.87l-3.47.91-3.15.82c-.53.14-1.16.34-1.66.43l-3.53.64-2.59.5-3.7.58-2.39.32-2.15.27c-.34.04-1.03.33-1.37.27-.85-.15-1.66.01-2.55.1-1.74.16-3.49.08-5.15.08l-1.69-.03-4.18-.06c-4.33-.07-16.81-2.01-21.12-3.14l-2.26-.59-1.85-.5-1.94-.5-3.88-1.11c-1.01-.29-1.95-.58-2.9-1-2.46-1.08-2.47-.74-4.2-1.79s-3.44-1.92-4.53-3.58c-1.22-1.86-1.32-2.72-1.49-4.58-.06-.69-.21-1.49-.17-2.1l.13-1.93c.18-2.74.13-5.39-.46-8.11-.47-2.18-1.51-3.99-3.2-5.41-1.58-1.33-4.72-3.61-6.6-3.78-.05-.13-.18-.37-.23-.5.43.01,1.14.12,1.54.35l3.11,1.77c3.73,2.13,5.69,5.08,6.14,9.38l.21,1.97c.4,3.79-.73,5.44.43,10.43.75,3.26,5.19,5.67,8.09,6.7l3.58,1.26c1.28.45,2.54.85,3.86,1.19l2.49.63,4.68,1.25,2.15.46c2.67.57,5.26,1.16,8,1.44l1.89.19,2.34.35c.75.11,1.58.22,2.33.26l3.33.19c.8.05,1.61.08,2.43.08l4.86.03,1.11-.02,5.05-.2c.93-.04,1.8-.08,2.71-.21l8.46-1.22,2.7-.64c.89-.21,1.76-.28,2.64-.49l3.72-.89c1.88-.45,2.42-.43,4.72-1.19l3.22-1.06c1.65-.54,3.08-1.26,4.42-2.38.9-.67,1.45-1.66,1.89-2.69,1.05-2.43.89-4.93.67-7.52l-.25-2.91-.23-2.62-.15-2.11c-.2-2.82,0-3.64-.39-6.04l.04-15.1c0-1.31.17-2.61.28-3.86l.31-3.37c.07-.07.19-.21.28-.24l.36.12-.24,2.59-.26,3.33-.22,4.42-.09,1.8-.02,7.21Z"/>
        <path class="st72" d="M187.94,126.59c.22,2.54-.12,4.01-.13,6.8v2.8s-.02,1.67-.02,1.67v1.19s.05,3.06.05,3.06v2.96s.1,2.64.1,2.64l.2,5.19.22,3.43.2,3.12c.09,1.37.04,3.84-.76,4.81-1.44,1.75-2.18,2.16-4.47,2.76l-2.82.73-4.85,1.19-1.97.45c-1.63.37-3.24.39-3.37.83-1.1,0-2.25.27-3.38.5-.43.09-1.23.1-1.75.16l-2.14.27-3.57.32c-2.25.2-4.39.3-6.59.28l-3.97-.05c-.75,0-1.49-.05-2.22-.11l-3.78-.33-3.2-.41-5.69-.76c-1.3-.17-2.53-.5-3.79-.78l-1.51-.34c-1.21-.27-2.37-.53-3.52-.85l-4.75-1.32c-1.01-.28-2.04-.66-3.03-1l-2.57-.89-2.31-.79c-.63-.21-1.36-.76-1.73-1.3l-.75-1.1c-.2-.29-.51-1.05-.54-1.44l-.25-2.94-.21-2.69c-.18-2.38-.55-4.32-1.25-6.68-.25-.85-2.04-4.22-2.98-4.32-2.95-2.97-7.87-7.13-11.87-8.58l-2.05-.75-.27-1.25c1.92,1.11,4.04,1.54,6.33,3.07l1.45.97c1.22.82,2.33,1.78,3.42,2.76l3.04,2.72c1.91,1.71,3.08,3.54,3.75,6,.43,1.57.74,3.11.84,4.73l.22,3.37c.21,3.21-.09,3.11,1.71,5.81.51.76,1.74,1.2,2.61,1.4l3.29,1.09,1.76.6,1.95.65,1.75.43c.68.17,1.27.5,1.88.62l1.88.36,5.01,1.29,2.23.35,1.62.35,2.44.19c2.17.17,4.16.7,6.3.82l1.23.07,2.81.14,3.63.1s.32.11.42.11l1.37-.02,1.8-.03h3.4s1.77-.28,1.77-.28c1.66-.26,2.92-.17,3.49-.49l2.29-.41,2.46-.38c.81-.13,1.6-.26,2.4-.42l2.35-.47,1.26-.23.73-.09,1.26-.24,6.32-1.67c1.08-.28,2.23-.77,2.76-1.6,1.46.22,2.1-2.49,2.07-3.61l-.08-2.4c.02-1.13-.02-2.24-.1-3.38l-.13-1.92c-.08-1.15-.17-2.31-.19-3.45l-.05-3.39-.17-4.49v-2.68s-.09-4.38-.09-4.38c-.02-.76-.02-1.49.02-2.24l.21-3.65.16-2.57h.4Z"/>
        <path class="st32" d="M189.21,126.42l-.22,4.49-.15,1.99v1.71s.04,5.21.04,5.21l.04,2.62.16,6.08.07,1.92.3,5.19.17,2.44c.11,1.64.12,3.26,0,4.9-.16,2.11-1.67,3.42-3.47,4.2-.6.26-1.33.62-1.91.77l-9.47,2.5c-.62.16-1.34.3-1.96.41l-2.79.49-3.44.67-5.07.52-3.23.24c-.6.05-1.27.1-1.9.1l-9.1-.03c-.95,0-1.96-.14-2.93-.22l-2.87-.24c-.75-.06-1.55-.13-2.27-.25l-7.84-1.29-4.66-1.12-2.55-.65-2.95-.79-2.97-.89-3.08-1c-2.4-.78-5.3-1.9-6.28-4.39-.58-1.46-.64-3.13-.72-4.72l-.13-2.61c-.04-.82-.03-1.69-.2-2.5l-.61-2.91c-.43-2.07-1.4-3.86-2.96-5.33-3.05-2.88-9.12-7.81-13.12-8.43l-.25-1.16,2.05.75c4,1.46,8.92,5.62,11.87,8.58l1.34,1.98c1.57,2.31,2.12,5.26,2.4,8.1l.23,2.31c-.04.72-.1,1.57,0,2.27l.51,3.63c.75.78,1.54,2,2.58,2.38l5.66,2.1c.39.14.8.29,1.21.41l3.92,1.13,3.26.86,3.31.76,2.27.62c.5.14,1.19.15,1.69.24l4.02.72,1.78.09c1.27.06,2.4.42,3.6.52l2.71.23c2.36.2,4.61.31,6.98.26l5.52-.11,2.14-.16,2.46-.21,4.06-.52,2.81-.41c.48-.07.91-.17,1.26-.38l1.57-.29,2.76-.55c.46-.09.97-.15,1.42-.27l3.04-.8,4.27-1.21c1.04-.3,3.15-1.15,3.94-1.91,1.24-1.19,1.67-2.88,1.61-4.5l-.06-1.44-.27-3.81-.24-3.36c-.06-.82-.04-1.69,0-2.53-.23-2.33-.29-4.61-.3-6.96l-.02-3.81.04-3.82.09-4.35.06-2.13c.02-.81.13-1.6.26-2.31.13.02.38-.02.51-.04Z"/>
        <path class="st23" d="M189.75,126.14c.04.42.05.92.01,1.46l-.25,4.06-.02,13.67.11,2.27.39,7.77.22,2.68c.17,2.04.43,3.97-.08,5.76l-.27.94c-.44,1.53-2.84,2.87-4.47,3.44l-2.26.8c-.99.35-1.96.59-2.97.84l-3.06.77-2.14.48-2.4.51c-2.05.43-4.04.88-6.14,1.09l-3.07.32c-1.72.18-3.32.4-5.05.49-.95.07-1.94.16-2.9.15l-5.25-.07c-.81-.01-1.62-.05-2.46-.1l-2.36-.16-2.89-.21c-.91-.07-1.96-.11-2.83-.25l-7.08-1.11-4.06-.91c-.73-.16-1.43-.29-2.12-.48l-3.42-.91-2.23-.64-2.22-.68c-4.07-1.24-10.01-2.51-10.53-7.25-.19-1.75-.31-3.39-.37-5.13-.12-3.72-.58-8.24-3.32-11.07-3.1-3.19-8.91-7.58-13.1-8.67-.03-.12,0-.37,0-.5,4,.62,10.07,5.55,13.12,8.43,1.56,1.47,2.53,3.26,2.96,5.33l.61,2.91c.17.81.15,1.68.2,2.5l.13,2.61c.08,1.6.15,3.26.72,4.72.98,2.49,3.88,3.61,6.28,4.39l3.08,1,2.97.89,2.95.79,2.55.65,4.66,1.12,7.84,1.29c.72.12,1.52.18,2.27.25l2.87.24c.96.08,1.97.22,2.93.22l9.1.03c.63,0,1.3-.05,1.9-.1l3.23-.24,5.07-.52,3.44-.67,2.79-.49c.61-.11,1.33-.24,1.96-.41l9.47-2.5c.58-.15,1.32-.51,1.91-.77,1.8-.78,3.31-2.1,3.47-4.2.13-1.64.12-3.26,0-4.9l-.17-2.44-.3-5.19-.07-1.92-.16-6.08-.04-2.62-.05-5.21v-1.71s.16-1.99.16-1.99l.22-4.49.54-.28Z"/>
        <path class="st63" d="M132.85,179.4c-6.44-.81-12.88-1.7-19.22-3.55l-10.6-3.09c-.32-.09-1.12-.23-1.25-.5l-.28-3.52c-.18-2.28-.88-4.54-1.76-6.62.41-.6,1.88-1.04,1.89-2.64,0-.69-.59-1.49-.67-2.08-.78-5.46,1.27-4.45-.53-8.25-.28-.59-.32-1.72-.45-2.39,4.97,5.72.63,15.46,3.35,20.43.69,1.27,2.4,3.2,3.75,3.89.74.74,1.58,1.17,2.58,1.47,1.46.44,2.66,1.12,4.06,1.76-1.15-.52,6.45,1.89,5.12,1.57l3.87.95c.8.2,1.43.55,2.21.59.47.02,1,.07,1.41.18l2.53.7,1.61.46,1.4.15.59.06c.16.02.3.25.4.43Z"/>
        <path class="st42" d="M193.05,125.15c-.12.39-.24.95-.27,1.44l-.18,2.67c-.05.77-.21,1.66-.21,2.41v13.4s.27,5.97.27,5.97l.16,2.17.41,6.02c.12,1.75.07,3.46.02,5.24-.08,2.79-1.57,4.37-3.91,5.64-4.76,2.6-20.98,5.94-26.73,6.33l-2.92.2-4.31.25c-2.31.13-4.63.19-6.93.02l-3.13-.23-2.88-.24-5.76-.68c-3.31-.39-9.75-1.78-13.04-2.7l-3.18-.9-3.59-1.05c-2.44-.71-5.9-1.9-7.98-3.25-1.64-1.06-3.29-2.81-3.72-4.76l-.13-.3c0-.49-.11-1.16-.18-1.77-.15-1.47.02-2.94.02-4.42,0-3.69-.3-4.49-1.04-7.7-.6-2.59-.79-1.54-2.13-4.06h.26c1.27.81,2.26,2.82,2.59,4.28.26,1.15.89,4.41.9,5.54l.06,6.25c.02,1.76.79,3.64,1.86,5.05,1.17,1.55,4.29,2.8,6.16,3.44l2.15.74,1.8.6c1.32.44,2.61.8,3.89.94.12.08.54.33.74.38l3.06.82c4.49,1.19,8.98,2.18,13.62,2.63l3.33.32c.82.08,1.63.2,2.44.24l5.06.21c2.33.1,4.58.12,6.92,0l4.08-.22c1.27-.07,2.5-.17,3.73-.36l4.62-.72c3.04-.48,5.97-1.03,8.95-1.81l4.77-1.26c4.09-1.08,9.97-2.74,10.07-7.89.03-1.5.05-3.06-.05-4.55l-.24-3.36-.18-2.64-.15-2.43-.13-3.1-.17-2.17v-13.63s.23-2.15.23-2.15c.08-.76-.02-1.45.05-2.17l.22-2.12c0-.08-.35-.41-.39-.33l-.13.28h-.24c-.18,0-.54-.06-.72-.04.62-.36,1.41-.47,2.16-.47Z"/>
        <path class="st73" d="M193.48,125.15l-.36,3.64c-.18,1.82-.29,3.65-.29,5.5v9.85s.07,1.71.07,1.71l.2,4.05.24,3.59.32,4.11.35,4.77c.15,2-.2,4.03-1.24,5.72-.94,1.54-2.56,2.55-4.23,3.19-2.59.99-5.18,1.73-7.88,2.43l-4.33,1.13c-2.27.59-4.52.97-6.84,1.33l-3.11.47-4.08.49c-1.23.15-2.51.25-3.76.29l-3.5.11c-.65.02-1.39.08-2,.07l-4.59-.11c-1.15-.03-2.26-.07-3.38-.18l-5.93-.58c-.86-.08-1.74-.2-2.56-.34l-4.34-.75-2.7-.51-2.08-.46c-4.5-.99-13.18-3.5-17.37-5.39-1.12-.51-2.17-1.35-3.06-2.17-1.29-1.18-2-2.68-1.97-4.3l.13.3c.44,1.96,2.08,3.7,3.72,4.76,2.08,1.35,5.54,2.54,7.98,3.25l3.59,1.05,3.18.9c3.28.93,9.73,2.32,13.04,2.7l5.76.68,2.88.24,3.13.23c2.3.17,4.62.12,6.93-.02l4.31-.25,2.92-.2c5.74-.39,21.96-3.73,26.73-6.33,2.33-1.27,3.83-2.85,3.91-5.64.05-1.78.1-3.49-.02-5.24l-.41-6.02-.16-2.17-.28-5.97v-13.4c0-.75.16-1.65.22-2.41l.18-2.67c.03-.49.15-1.05.27-1.44h.43Z"/>
        <path class="st98" d="M175.96,167.58l-1.14.78-1.26.23-2.35.47c-.8.16-1.59.3-2.4.42l-2.46.38-2.29.41c-.79-.2-2.5-.11-3.43.06l-1.86.2c-.72.08-1.42.11-2.11.13l-3.63.07c-.45-.14-.94-.02-1.24.25l-3.63-.1-2.81-.14-1.23-.07c-2.14-.12-4.13-.65-6.3-.82l-2.44-.19-1.62-.35-2.23-.35-5.01-1.29-1.88-.36c-.62-.12-1.2-.45-1.88-.62l-1.75-.43-1.95-.65-1.76-.6-3.29-1.09c-.87-.19-2.1-.63-2.61-1.4-1.8-2.7-1.51-2.6-1.71-5.81l-.22-3.37c-.1-1.62-.42-3.15-.84-4.73-.67-2.47-1.84-4.3-3.75-6l-3.04-2.72c-1.1-.98-2.2-1.94-3.42-2.76l-1.45-.97c-2.28-1.53-4.41-1.97-6.33-3.07-.02-.11.02-.34.03-.46l2.63.7,2.93,1.45,1.92,1.18c.58.35,1.17.73,1.66,1.15l1.42,1.25c.47.41.87.83,1.27,1.34l1.88,1.76,1.37,1.29c.47.44,1.05,1.08,1.42,1.59l.98,1.37c.35,1.08.75,2.07,1.29,3.13l.56,3.35c.09.55.12,1.15.16,1.71l.31,4.53c.03.47.28,1.36.38,1.84.06.32.58.84.78,1.12.69.95,1.25,1.51,2.59,1.87,1.5.4,2.82.84,4.26,1.28l2.73.84c1.11.34,2.2.68,3.36.96l1.76.43,3.27.8c1.09.32,2.14.55,3.25.71,2.15.3,1.41.49,3.86.67.95.07,1.83.24,2.79.38l1.56.22c.61.09,1.25.14,1.87.18l1.53.1,1.84.13,3.43.32c.63.06,1.47.04,2.14.02l2.61-.05c.7-.01,1.4-.04,2.07-.09l4.44-.33,3.07-.32,2.85-.36c.45-.06,1.03-.19,1.47-.27l1.33-.25,2.4-.47,3.06-.65c.24-.05.64-.02.83.05Z"/>
        <path class="st115" d="M190.13,163.81l.54-.51c.03,2.55-1.96,4.36-4.37,5.23-6.8,2.47-19.35,5.13-26.39,5.44l-6.45.29-7.41-.25-3.84-.16c-1.17-.05-2.93-.12-4.21-.56-5.85-.99-11.56-2.13-17.26-3.86l-6.17-1.87c-1.08-.33-2.14-.94-3.2-1.42-2.93-1.32-3.99-3.58-4.11-6.61l-.1-2.47-.13-2.87c-.24-5.16-1.92-9.39-6.33-11.99-.72-.42-1.48-1.06-2.23-1.59-2.09-1.46-4.75-3.14-7.09-3.65l-.22-.96c4.19,1.09,10,5.48,13.1,8.67,2.74,2.83,3.2,7.35,3.32,11.07.06,1.73.18,3.37.37,5.13.52,4.75,6.46,6.01,10.53,7.25l2.22.68,2.23.64,3.42.91c.69.19,1.4.32,2.12.48l4.06.91,7.08,1.11c.87.14,1.92.18,2.83.25l2.89.21,2.36.16c.84.06,1.65.09,2.46.1l5.25.07c.96.01,1.95-.08,2.9-.15,1.72-.09,3.32-.31,5.05-.49l3.07-.32c2.09-.22,4.09-.66,6.14-1.09l2.4-.51,2.14-.48,3.06-.77c1-.25,1.98-.49,2.97-.84l2.26-.8c1.63-.57,4.03-1.92,4.47-3.44l.27-.94Z"/>
        <path class="st94" d="M153.1,179.97c-.05.1-.44.35-.64.35l-2.81.03c-.82,0-1.64-.15-2.43-.18l-4.98-.15-2.43-.15-2.67-.19c-.74-.05-1.49-.04-2.15,0l-2.14-.27c-.1-.18-.23-.41-.4-.43l-.59-.06-1.4-.15-1.61-.46-2.53-.7c-.4-.11-.93-.16-1.41-.18-.77-.04-1.4-.39-2.21-.59l-3.87-.95c1.33.33-6.28-2.09-5.12-1.57-1.4-.64-2.61-1.32-4.06-1.76-1-.3-1.84-.73-2.58-1.47-1.36-.7-3.06-2.62-3.75-3.89-2.72-4.98,1.62-14.72-3.35-20.43-.32-.37-.71-.86-1.13-1.24-1.99-1.81-5.06-1.46-5.34-1.91-.26-.42-.61-1.38-.73-1.86,1.88.18,5.02,2.45,6.6,3.78,1.69,1.42,2.73,3.23,3.2,5.41.59,2.72.64,5.36.46,8.11l-.13,1.93c-.04.61.1,1.42.17,2.1.17,1.86.26,2.72,1.49,4.58,1.09,1.66,2.88,2.58,4.53,3.58s1.75.71,4.2,1.79c.95.42,1.89.71,2.9,1l3.88,1.11,1.94.5,1.85.5,2.26.59c4.32,1.13,16.79,3.07,21.12,3.14l4.18.06,1.69.03Z"/>
        <path class="st92" d="M190.89,125.62c.18-.02.54.04.72.04l-.17,1.46-.24,2.42-.14,3.28c-.04.9-.18,1.77-.17,2.66l.02,3.9c0,1.66.01,3.29.17,4.97l.25,7.2.22,3.61.22,2.66.22,3.21c.12,1.68-.1,4-.91,5.4-.97,1.67-3.34,2.83-5.13,3.44l-2.52.87c-.99.34-2,.57-3.03.83l-3.88.94c-.71.17-1.41.31-2.16.45l-6.76,1.3c-3.08.59-5.86.67-8.88,1.03h-12.64s-2.67-.29-2.67-.29l-2.63-.27c-4.12-.42-8.56-1.27-12.57-2.12-.19-.04-.62-.39-.64-.44l4.05.72,6.77,1.19c.59.1,1.29.19,1.93.21l1.89.05,2.43.17,5,.28c2.18.12,4.31.11,6.48-.02l4.53-.26c2.15-.12,6.8-.79,9.06-1.2l3.1-.57,2.08-.47c4.17-.95,9.74-2.15,13.47-4.06.37-.19,1.01-.73,1.34-1.03,1.8-1.69,1.91-4.6,1.73-6.96l-.42-5.42-.07-2.05-.24-4.29-.22-6.01c-.09-2.34-.1-4.62,0-6.93l.08-2.11.13-2.76.22-4.46c.01-.26-.67-.29-.75-.13-.11.02-.31.04-.4.08l-.54.28c-.12.02-.38.06-.51.04l-.75-.12c.76-.28,2.19-.63,2.94-.73Z"/>
        <path class="st94" d="M195.44,153l.55.73.53,6.25c.13,1.58.12,3.14.16,4.76s-.34,3.41-1.08,4.96c-.19.4-.75.97-1.06,1.33-1.16,1.29-1.7,1.9-3.24,2.59-3.11,1.38-3.76.85-5.45,1.94-.13.09-.49.26-.65.29l-9.97,2.25c-5.14,1.16-10.24,1.73-15.5,2.18-3.19.27-12.13.46-15.1.24l-2.42-.18c-1-.07-1.92-.09-2.88-.18l-2.9-.26c-.51-.04-1.04-.14-1.44-.23.66-.04,1.41-.04,2.15,0l2.67.19,2.43.15,4.98.15c.79.02,1.61.19,2.43.18l2.81-.03c.2,0,.59-.26.64-.35,1.66,0,3.41.09,5.15-.08.89-.08,1.7-.24,2.55-.1.35.06,1.03-.23,1.37-.27l2.15-.27,2.39-.32,3.7-.58,2.59-.5,3.53-.64c.5-.09,1.13-.29,1.66-.43l3.15-.82,3.47-.91c.96-.25,1.88-.51,2.78-.87l2.65-1.06c.88-.35,1.84-1,2.68-1.59,3.19-2.28,3.23-6.73,2.96-10.31l-.22-2.92-.27-3.56-.17-2.2c.06.13.16.37.24.48Z"/>
        <path class="st92" d="M100.7,142.2c-.31.14,1.88,1.87,2.3,2.28,2.1,2.03,3.02,4.8,3.37,7.64.11.85.27,1.73.29,2.54l.1,3.85.08,1.88c.13,3.1,2.05,5.67,5.07,6.62,1.22.61,2.45,1.12,3.77,1.51l9.31,2.71,1.74.66c.22.08.47.19.6.26-.42-.03-.96-.1-1.44-.22l-5.33-1.36c-2.23-.57-4.32-1.37-6.5-2.1-3.46-1.16-6.75-2.44-7.4-6.57-.14-.87-.38-1.82-.39-2.65l-.08-5.31c-.02-1.32-.69-4.16-1.16-5.57-.62-1.85-1.77-3.13-3.08-4.23-1.03-.87-2.1-1.73-3.27-2.55l-1.59-1.11c-.8-.56-1.69-1.02-2.6-1.41l-2.06-.87c-.21-.09-.6-.14-.8-.12l-.25-1.14c2.34.52,5,2.2,7.09,3.65.76.53,1.52,1.17,2.23,1.59Z"/>
        <path class="st55" d="M194.26,173.37l-6.59,1.86c-.61.17-1.28.26-1.83.33,1.7-1.09,2.35-.56,5.45-1.94,1.54-.68,2.08-1.3,3.24-2.59.32-.35.87-.92,1.06-1.33.74-1.54,1.12-3.27,1.08-4.96s-.03-3.18-.16-4.76l-.53-6.25c.16-.02.86.1.93.33.63,2.09.28,3.14.62,5.4.18,1.22.27,2.35.24,3.53l.07,2.26c.02.5.03,1.35-.09,1.78l-.84,3.07c-.14.52-.83,1.43-1.14,1.92-.48.73-1.55.6-1.51,1.35Z"/>
        <path class="st89" d="M187.54,126.59l-.16,2.57-.21,3.65c-.04.75-.04,1.48-.02,2.24l.09,4.38v2.68s.17,4.49.17,4.49l.05,3.39c.02,1.14.11,2.3.19,3.45l.13,1.92c.08,1.14.12,2.25.1,3.38l.08,2.4c.04,1.12-.6,3.83-2.07,3.61l-.08-.46c1.35-.7,1.48-2.4,1.47-3.79l-.03-3.73c-.4-1.42-.3-2.8-.38-4.31l-.1-2.16c-.04-.73-.03-1.23-.36-1.89l.31-.69-.07-1.61c-.07-1.46-.21-2.84-.19-4.32l.02-1.77.03-2.67c0-.72-.02-1.55-.06-2.26-.27-3.99.16-2.14.26-5.61l.06-2.1c0-.22-.24-.53-.44-.59.35-.1.85-.21,1.21-.21Z"/>
        <path class="st5" d="M188.7,126.46c-.13.7-.24,1.49-.26,2.31l-.06,2.13-.09,4.35-.04,3.82.02,3.81c.01,2.35.07,4.63.3,6.96-.03.84-.05,1.71,0,2.53l.24,3.36.27,3.81.06,1.44c.06,1.62-.37,3.31-1.61,4.5-.79.76-2.9,1.62-3.94,1.91l-4.27,1.21-3.04.8c-.44.12-.96.18-1.42.27l-2.76.55-1.57.29-.23-.27c.13-.44,1.75-.46,3.37-.83l1.97-.45,4.85-1.19,2.82-.73c2.28-.6,3.03-1.01,4.47-2.76.8-.97.85-3.44.76-4.81l-.2-3.12-.22-3.43-.2-5.19-.11-2.64v-2.96s-.05-3.06-.05-3.06v-1.19s.02-1.67.02-1.67v-2.8c.02-2.79.36-4.26.14-6.8,0-.06,0-.17.01-.24l.75.12Z"/>
        <path class="st94" d="M195.9,124.18c.11.04.42.12.4.25l-.06.63-.44,4.68c-.11,1.11-.2,2.22-.2,3.35l-.02,3.58.05,2.87c0,.37.03.72.06,1.01-.34.86-.8,2.48-.7,3.33h-.27s.02-7.21.02-7.21l.09-1.8.22-4.42.26-3.33.24-2.59-.36-.12c.19-.07.51-.18.72-.24Z"/>
        <path class="st0" d="M101.95,144.16v.45s-.67-.56-.67-.56l-1.49-1.23c-.88-.68-7.02-4.76-7.7-3.97h-.27s-.19-.75-.19-.75c.2-.02.59.03.8.12l2.06.87c.92.39,1.81.86,2.6,1.41l1.59,1.11c1.17.82,2.24,1.68,3.27,2.55Z"/>
        <path class="st94" d="M195.21,151.09c-.2-1.17-.1-3.41-.24-4.78l-.25-2.43h.27c.05.45.47,1.3.62,1.8.32,1.07-1.1,1.89.07,3.71.13.2.16.76.04.95l-.51.76Z"/>
        <path class="st4" d="M141.97,168.4c-.28.02-.85.29-1.12.24-.49-.09-1.04-.18-1.5-.19-3.22-.07-.89-.24-3.75-.6l-1.14-.14c-.23-.03-.62-.21-.84-.3.86-.67,1.39.49,2.88.01l1.69.47c2.6.73,1.59-.11,3.8.52Z"/>
        <path class="st98" d="M185.8,164.29l.08.46c-.53.83-1.68,1.32-2.76,1.6l-6.32,1.67-1.26.24-.73.09,1.14-.78c.63-.43,1.66-.53,3.12-.95l1.5-.44,1.84-.53c.28-.08.73-.26.98-.3,1.91-.32.5-.69,2.4-1.06Z"/>
        <path class="st15" d="M101.72,144.86c1.34,2.52,1.53,1.47,2.13,4.06-1.26-1.85-1.38-2.75-3.44-4.5-2.44-2.07-5.19-3.64-8.12-4.64l-.21-.69c1.57.32,5.28,2.39,6.64,3.44l3,2.33Z"/>
        <path class="st79" d="M101.96,144.61l.02.25h-.26s-3-2.33-3-2.33c-1.36-1.05-5.07-3.12-6.64-3.44v-.24c.69-.78,6.82,3.3,7.7,3.97l1.49,1.23.68.56Z"/>
        <path class="st80" d="M170.31,170.22l.23.27c-.36.21-.78.31-1.26.38l-2.81.41-4.06.52-2.46.21-2.14.16-5.52.11c-2.37.05-4.62-.06-6.98-.26l-2.71-.23c-1.2-.1-2.33-.46-3.6-.52l-1.78-.09-4.02-.72c-.51-.09-1.2-.11-1.69-.24l-2.27-.62-3.31-.76-3.26-.86-3.92-1.13c-.41-.12-.82-.27-1.21-.41l-5.66-2.1c-1.04-.39-1.83-1.6-2.58-2.38l-.51-3.63c-.1-.7-.04-1.55,0-2.27l-.23-2.31c-.28-2.84-.83-5.79-2.4-8.1l-1.34-1.98c.94.1,2.73,3.46,2.98,4.32.7,2.37,1.06,4.31,1.25,6.68l.21,2.69.25,2.94c.03.38.34,1.14.54,1.44l.75,1.1c.37.54,1.1,1.09,1.73,1.3l2.31.79,2.57.89c.99.34,2.02.72,3.03,1l4.75,1.32c1.16.32,2.32.58,3.52.85l1.51.34c1.26.28,2.49.61,3.79.78l5.69.76,3.2.41,3.78.33c.73.06,1.47.1,2.22.11l3.97.05c2.2.03,4.34-.07,6.59-.28l3.57-.32,2.14-.27c.52-.07,1.31-.08,1.75-.16,1.13-.23,2.28-.49,3.38-.5Z"/>
        <path class="st98" d="M164.06,170.27c-.57.32-1.83.23-3.49.49l-1.77.28h-3.4s-1.8.04-1.8.04l-1.37.02c-.1,0-.39-.09-.42-.11.29-.27.79-.39,1.24-.25l3.63-.07c.68-.03,1.39-.05,2.11-.13l1.86-.2c.93-.18,2.64-.26,3.43-.06Z"/>
        <path class="st115" d="M190.14,126.06c.51-.33-.05,3.97-.09,5.11l-.1,3.12c-.1,3.15-.11,6.22.04,9.36l.21,4.3.29,6.22.22,2.91.2,5.08c.01.28-.16.91-.25,1.14l-.54.51c.51-1.79.25-3.72.08-5.76l-.22-2.68-.39-7.77-.11-2.27.02-13.67.25-4.06c.03-.54.03-1.04-.01-1.46.09-.05.29-.07.4-.08Z"/>
        <path class="st66" d="M121.38,171.47l-1.9-.54-4.91-1.57c-.92-.29-1.96-.61-2.8-1.04l-1.92-.99c-.79-.41-1.49-1-2.13-1.67-1.68-1.75-1.41-3.07-1.95-5.48l-.03-6.27c0-.22-.62-5.23-1.16-4.76-.33-1.46-1.32-3.47-2.59-4.28l-.02-.25v-.45c1.3,1.1,2.45,2.38,3.07,4.23.47,1.42,1.14,4.25,1.16,5.57l.08,5.31c.01.83.26,1.78.39,2.65.65,4.12,3.94,5.4,7.4,6.57,2.18.73,4.27,1.54,6.5,2.1l5.33,1.36c.48.12,1.02.19,1.44.22.07,0,.18,0,.24.02.02.05.45.4.64.44,4.02.85,8.45,1.7,12.57,2.12l2.63.27,2.67.29h12.64c3.02-.37,5.8-.44,8.88-1.03l6.76-1.3c.74-.14,1.45-.28,2.16-.45l3.88-.94c1.03-.25,2.03-.48,3.03-.83l2.52-.87c1.79-.62,4.17-1.77,5.13-3.44.81-1.4,1.03-3.72.91-5.4l-.22-3.21-.22-2.66-.22-3.61-.25-7.2c-.16-1.68-.16-3.31-.17-4.97l-.02-3.9c0-.89.13-1.76.17-2.66l.14-3.28.24-2.42.17-1.46h.24l-.17,3.12-.29,4.32.02,10.53.12,1.67.04.99.1,4.31.25,3.36.23,3.12.2,2.66c.22,2.95.3,6.36-1.93,8.33-1.73,1.53-3.67,2.1-5.88,2.8-1.13.36-2.23.67-3.37.96l-5.58,1.39-4,.82-3.66.66c-1.66.3-7.67,1.01-9.19,1.03l-6.48.12c-.8.01-1.56.02-2.36,0l-3.58-.13-2.92-.23-2.63-.3-2.5-.29-2.72-.41-4.23-.8-3.34-.72c-2.67-.57-4.36-1.27-6.61-1.51Z"/>
        <path class="st65" d="M121.4,171.71l-.03-.24c2.25.24,3.95.94,6.61,1.51l3.34.72,4.23.8,2.72.41,2.5.29,2.63.3,2.92.23,3.58.13c.8.03,1.56.02,2.36,0l6.48-.12c1.52-.03,7.53-.74,9.19-1.03l3.66-.66,4-.82,5.58-1.39c1.14-.29,2.24-.6,3.37-.96,2.21-.7,4.15-1.27,5.88-2.8,2.23-1.96,2.15-5.38,1.93-8.33l-.2-2.66-.23-3.12-.25-3.36-.1-4.31-.04-.99-.12-1.67-.02-10.53.29-4.32.17-3.12.13-.28c.04-.08.4.24.39.33l-.22,2.12c-.08.72.02,1.42-.05,2.17l-.22,2.15v13.63s.15,2.17.15,2.17l.13,3.1.15,2.43.18,2.64.24,3.36c.11,1.49.08,3.05.05,4.55-.1,5.15-5.97,6.81-10.07,7.89l-4.77,1.26c-2.98.79-5.91,1.34-8.95,1.81l-4.62.72c-1.23.19-2.46.29-3.73.36l-4.08.22c-2.34.13-4.59.1-6.92,0l-5.06-.21c-.82-.03-1.62-.16-2.44-.24l-3.33-.32c-4.64-.45-9.14-1.44-13.62-2.63l-3.06-.82c-.2-.05-.62-.3-.74-.38Z"/>
        <path class="st79" d="M121.38,171.47l.03.24c-1.28-.14-2.58-.5-3.89-.94l-1.8-.6-2.15-.74c-1.87-.64-4.99-1.9-6.16-3.44-1.07-1.41-1.85-3.29-1.86-5.05l-.06-6.25c-.01-1.13-.64-4.39-.9-5.54.54-.47,1.16,4.54,1.16,4.76l.03,6.27c.55,2.41.27,3.73,1.95,5.48.64.67,1.35,1.26,2.13,1.67l1.92.99c.83.43,1.88.75,2.8,1.04l4.91,1.57,1.9.54Z"/>
        <path class="st88" d="M142.21,174.34v-.48l3.84.16,7.41.25,6.45-.29c7.04-.32,19.59-2.97,26.39-5.44,2.41-.88,4.4-2.68,4.37-5.23.09-.24.26-.87.25-1.14l-.2-5.08-.22-2.91-.29-6.22-.21-4.3c-.15-3.14-.14-6.21-.04-9.36l.1-3.12c.04-1.15.6-5.44.09-5.11.07-.16.76-.13.75.13l-.22,4.46-.13,2.76-.08,2.11c-.09,2.31-.08,4.6,0,6.93l.22,6.01.24,4.29.07,2.05.42,5.42c.18,2.37.07,5.28-1.73,6.96-.32.3-.97.84-1.34,1.03-3.73,1.91-9.3,3.11-13.47,4.06l-2.08.47-3.1.57c-2.26.41-6.9,1.08-9.06,1.2l-4.53.26c-2.18.13-4.3.14-6.48.02l-5-.28-2.43-.17Z"/>
        <path class="st54" d="M142.21,173.86v.48l-1.89-.05c-.64-.02-1.34-.1-1.93-.21l-6.77-1.19-4.05-.72c-.06-.01-.17-.01-.24-.02-.13-.06-.38-.17-.6-.26l-1.74-.66-9.31-2.71c-1.32-.38-2.55-.9-3.77-1.51-3.02-.95-4.94-3.52-5.07-6.62l-.08-1.88-.1-3.85c-.02-.82-.18-1.7-.29-2.54-.36-2.84-1.28-5.61-3.37-7.64-.42-.41-2.62-2.14-2.3-2.28,4.4,2.6,6.09,6.83,6.33,11.99l.13,2.87.1,2.47c.12,3.03,1.18,5.29,4.11,6.61,1.06.48,2.13,1.09,3.2,1.42l6.17,1.87c5.7,1.73,11.4,2.87,17.26,3.86,1.28.44,3.05.52,4.21.56Z"/>
      </g>
      <path class="st68" d="M162.11,59.23h-.24l.09-1.55c-.68-1.5-1.75-2.84-2.98-3.94l-2.29-3.05c-.34-.46-.46-1.7-.58-2.26,1.18-.33.63,1.82,1.53,2.97,2.08,2.66,3.51,3.43,4.93,6.46l-.46,1.37Z"/>
      <path class="st95" d="M163.34,59.25l.14.23.33.83c-2.84,1.26-5.85,1.27-7.99,3.65l-.95,1.06-.66-.04,1-1.17c.7-.82,1.74-1.73,2.86-2.12l4.6-1.57c.11-.15-.01-.83-.07-.88h.75Z"/>
      <path class="st28" d="M164.06,56.83c.25.69.85,1.35.6,2.4-.03.12-.11.35-.16.48-.08,0-.22.01-.3.02l-.73-.26-.14-.23.06-.26.48-.05c1.03-.11-1.6-4.02-2.22-4.74l-1.36-1.59c-1.32-1.55-1.56-2.06-2.03-3.93,1.25,1.2.23,1.19,2.41,3.81.89,1.07,1.73,2.12,2.52,3.23.31.43.57.82.86,1.11Z"/>
      <path class="st49" d="M135.51,61.1c-.04.09-.16.22-.22.3-.16.03-.56.46-.58.71l-.28,3.42c-.02.23-.47.61-.59.59l.14-1.92c.06-.88.07-1.74.05-2.54.48-.21.99-.41,1.49-.57Z"/>
      <path class="st12" d="M136.45,60.43l-.67.08-.31-.05c0-.1.42-.39.56-.3l.41.27Z"/>
      <path class="st50" d="M164.67,59.23c.25-1.05-.35-1.71-.6-2.4-.38-1.03-.98-1.93-1.72-2.86l-2.11-2.64c-.05-.06-1.47-2.35-.75-2.41,1.61,4.09,4.67,5.38,6.02,10.11l-.83.2Z"/>
      <polygon class="st56" points="134.77 60.43 134.77 60.67 134.05 60.71 134.28 60.36 134.77 60.43"/>
      <path class="st90" d="M135.26,60.45s-.34.22-.48.23v-.24h.48Z"/>
      <g>
        <path d="M205.06,119.68c.65-.22,1.5-.32,2.15-.69.4-.22,1.25-.52,1.44-.05.11.28-.3.99-.42,1.29-1.29,3.2-1.93,6.78-2.35,10.16-.15,1.22,2.54.9,5.18,3.62,1.04,1.07,1.74,2.53,1.76,4.05,0,.79-.72,1.68-1.29,2.35,1.15,2.14,1.24,4.73-.38,6.7-1.36,1.67-.14,3.25-2.9,5.32-.46,1.74-1.71,2.99-3.31,3.74-.22,2.22,1.56,10.3,2.5,11.91l1.37,2.37c.66,1.13-3.07,1.06-3.79,1.72-.34.06-.98.16-1.39.27l-8.48,2.31-17.82,4.48c.06.72.17,1.59.4,2.24l1.9,5.33c1.12,3.15,3.2,4.44,1.16,5.45l-4,1.97c-1.72.85-3.62,1.26-5.52,1.75-5.41,1.4-10.74,2.57-16.33,2.99l-2.93.22c-1.97.15-3.96.18-5.93,0l-2.65-.24c-7.16-.64-15.17-3.48-21.49-6.7-.65-.33-1.6-1.63-1.45-2.28l1.57-6.76c.29-1.26.29-2.54.22-3.84-5.03-.97-9.68-2.22-14.51-3.66l-5.25-1.56c-1.15-.34-2.21.26-2.27-.95l-.15-3.26c-.12-2.59-.81-5.1-1.85-7.5l-.91.11c-.81.09-1.81.33-2.61.27-.74-.05-1.9-.66-2.42-1.14-.68-.63-1.18-1.09-1.84-1.61-1.35-1.09-1.79-2.9-1.66-4.57-.75-.93-1.2-2.03-1.22-3.22l-.02-1.45c.45-.63.25-1.52-.31-2.2-1.03-1.25-1.49-3.32-.39-4.68s2.35-1.74,3.3-2.72l.41-.17c.08-.03.05-.41.03-.49-1.86-6.59-2.8-13.83-1.08-20.57.42-1.63,3.7-.32,4.88.1l2.63.93c3.87,1.37,7.73,2.99,11.76,4.29l5.8-6.18,5.37-5.18c3.69-3.07,4.78-3.64,9.41-5.01.56-.17,2.68-.09,2.81-1.07-.06.49-.84-7.77-.88-8.92-.16-4.95-.61-9.7-1.93-14.48l-1.51-5.45c-1.12-4.03-1.14-8.67.09-12.69,2.12-6.94,6.49-12.94,12.82-16.61,5.27-3.06,11.67-3.82,17.6-2.84l2.69.44c3.89.64,8.59,3.56,11.69,5.97,2.57,2,7.04,6.9,7.4,10.16.4,3.62.15,7.26-.4,10.84-.06.39.32,1.13.62,1.27.26.12.78.08,1.21.03,4.92-.55,7.1,5.31,11.39,7.76l1.13.65c.19.11.34.78.14.84l-.8.23c-.4.12-.82.3-1.16.53-1.84,1.26-3.95,1.75-6.25,1.66,2.22,1.9,2.96,6.23,4.7,7.74.74.64,2.35,1.01,2.02,1.95-.3.84-1.84.05-2.47-.03l-3.91-.47c-4.69-.56-8.88-3.77-11.24-7.94l-2.52.42c-1.36,3.52-3.1,6.87-5.04,10.06-.11.18-.14.79.02.99l2.6,3.35c.97,1.26,3.01,2.8,2.83,3.21l-.36.83c3.71,1.26,7.45,2.48,11.02,4.01l2.59,1.11c.4.17,1.08.76,1.49,1.07l.43,1.26c1.99,2.63,3.75,5.36,5.29,8.36,3.92-1.12,7.75-2.26,11.5-3.54ZM138.12,53.46l-1.37,1.28c-.37.34-.71.73-1.08,1.23-.76.32-1.17,1.08-1.46,2.04-.62.39-1.01,1.21-.96,2.13-.97.56-1.81,1.48-2.37,2.69-.43.93-.7,1.95-1.1,3.02l-.49,1.32c-.54,1.48.72.32,2.12-.02l.96-.23c.15-.04.43-.13.71-.23l.48-.02,2.42-.67,3.82-.53c.53-.07,1.28-.1,1.93-.15l3.6-.25c1.14-.08,2.27-.07,3.32-.08.6,0,1.5,0,2.15.05l1.96.19c.13.01.39,0,.72.01.36,0,.96.11,1.44.22l.72.03h.24s.96.24.96.24c.06.01.18,0,.24,0h.76c.19.02.56.18.92.23,3.19.45,7.34,1.58,10.48,2.93l2.02.86c.93.4,1.77.89,2.65,1.44l1.76,1.11c.89.56,1.78,1.16,2.68,1.62.1-1.67.24-2.83.58-4.15.09-.33.05-.87-.03-1.44.03-1.07-.07-2.12-.35-3.3l-.22-1.27c.51-2.59-5.95-8.8-7.92-10.18-1.59-1.12-6.18-3.77-8.3-3.96l-1.2-.47c-.32-.13-1.01-.38-1.44-.49-.31-.08-.95-.16-1.44-.24l-.44.07c-.36-.14-.92-.33-1.48-.32l-1.44.04c-1.57.05-3.33-.22-4.95.06l-2.69.46c-2.82.48-6.7,2.85-8.92,4.71ZM156.59,108.44c.46-.09,1.61-.12,2.06-.47,4.7-3.67,10.52-13.65,12.6-19.37l-.94-.94c-.16-.16-.23-.66-.12-.84s.66-.22.87-.15l1.56.5c.4.13,1.45.24,1.81,0,2.9-1.94,4.89-5.05,5.38-8.53.11-.8-.28-1.89-.83-2.45-.33-.32-.97-.58-1.44-.77-2.02-.84-2.95.53-4.24,1.97-2.37,2.64-1.37,4-2.62,4.5-.36.14-.86-.64-.79-1,.67-3.6.06-7.46-1.4-10.85-1.9-.73-4.15-1.4-6.29-1.9-4.51-1.06-7.43-1.43-12.25-1.6-1.56-.06-3.07-.09-4.63.01l-3.43.22c-4.12.26-9.15,1.17-12.7,3.04-.79.42-.54,4.87-.46,5.56.26,2.18.85,4.16,1.46,6.24,1.29,4.41,2.21,8.76,2.48,13.37l.27,4.55.52,6.69c3.58,2.96,11.77,3.53,16.14,3.04l4.12-.46,2.88-.35ZM175.26,73.74l-1.22-.74-3.5-2.01.21.82c.63,1.46.66,5.17,1.26,5.2.39-1.95,2.02-2.49,3.25-3.27ZM178.2,85.92l-.26.44c-.77.13-1.37.75-1.55,1.61,2.89,4.02,5.54,6.44,10.52,7.17.34.05,1.23.1,1.44-.14.45-.5-.24-1.85-.81-2.18l-1.18-2.7c-.76-1.74-1.68-1.13-3.35-4.08-.07-.13-.03-.58.04-.71.1-.17.63-.23.82-.14,1.43.63,2.97.76,4.53.68l3.07-1.38-1.11-1.01-3.16-3.07c-.32-.79-.92-1.35-1.65-1.7-1.22-1.23-2.66-1.74-4.54-1.45l.14,2.74-.74,1.68c-.38.85-.78,1.76-1.26,2.52l-.97,1.71ZM152.27,113.42l-2.53,2.75c-1.49,1.62-2.97,3.07-4.85,4.31-.62.41-1.88.51-2.58.36-.57-.13-1.05-1.63-1.77-2.86-.08-.14-.12-.44-.21-.73l-.27-.94-.88-4.32c-.14-.66-.09-1.28-.11-1.91h-1.18c-.07,0-.18,0-.24,0-.49-.12-1.47-.39-2.01-.62-.3-.13-1.76-1.74-2.25-.74-1.35,2.73-2.74,5.74-3.99,8.94l4.09-2.45c.74-.44,2.99-1.44,3.65-.14.51,1.03,1.07,1.83,1.85,2.44.1.48.61,1.02,1.02,1.29.02.75,3.25,4.64,4.28,3.89,2.52-1.81,4.85-4.03,6.67-6.51.26-.36.54-1.34.91-1.49.86-.35,2.28-.42,3.1-.16l1.88.6c.28.22.81.53,1.2.74l5.32,2.85c.28.15.97-.07,1.1-.3l5.34-9.05c.51-.86,1.22-1.62,1.32-2.68.06-.61-.79-1.11-1.19-1.53-1.29-1.37-2.82-3.52-3.37-4-.07-.06-.36.17-.45.3-1.39,2.03-3.04,4.28-4.8,6.11-.51.53-1.14,1.3-1.67,1.67-2.02,1.41-4.16,2.45-6.37,3.52-.41.2-.77.41-1,.66ZM164.02,121.3c-.12.23-.51.61-.61.92l-1.52,4.46c-.17.49-.84.56-1.33.62l-4.62.56-1.37.15-4.32.45c-3.48.36-3.77-.17-6.34-.22l-2.43-.05c-.75-.01-1.49.03-2.2-.08l-1.7-.26c-2.59-.39-.72.36-2.67-.33l-1.21-.05c-1.2-.62-2.62-.11-2.93-.7-.33-.62-.19-1.85-.12-2.56l.19-1.86.14-1.49c.31-.27,1-2.19.44-2.49-.18-.1-.7,0-.85.18l-1.79,2.14c-.22.27-1,.01-1.16-.31-.23-.53-.26-1.3-.03-1.9l1.5-3.8,1.02-2.38.88-2.06c-.33-.03-1.13.17-1.3.47l-2.04,3.56c-2.51,4.37-4.01,9.16-3.73,14.21.02.33.45.86.7.9,5.22.79,11.97,1.71,17.12,1.67l3.35-.03c2.32-.02,4.56.02,6.85-.14l3.6-.26c1.98-.14,3.95-.27,5.9-.55l6.94-1.02c.85-.13.52-1.19,1-2.86.31-1.08.52-2.19.92-3.2l2.22-5.64c.19-.48.41-1.12.64-1.5l1.3-2.13,1.21-1.87,1.04-1.58c-2.11-1.05-2.26-.38-4.27-1.12l-.51-.33-1.01,1.43c-.67.94-1.14,1.7-1.52,2.86-.16.49-1.27,1.97-1.79,2.91l-1.04,1.88c-1.16,2.11-1.2.88-1.25,2.15l-.78.24-.53,1ZM141.23,114.42c.07.71,1.24,5.95,2.74,4.9,2.33-1.63,4.21-3.34,5.91-5.7,1.03-.54.64-1.35,1.84-1.85l1.65-.68-.12-.5-2.65.14c-3.45.18-6.6.08-10.11-.22l.74,3.91ZM110.42,125.82c4.22,1.29,7.97,2.17,12.11,3.05-.3-7.2,1.78-11.57,5.31-17.76-.04-.25-3.74,1.6-3.53,1.46-1.74,1.18-3.3,2.4-4.78,3.87l-5.52,5.49-3.59,3.88ZM186.23,114.64l-1.36-1.18-6.25-2.54c-.32.09-.82.3-.99.54-3.61,5.14-6.09,10.79-7.12,17.08,7.32-1.29,14.3-2.92,21.53-4.94-1.67-3.35-3.64-6.06-5.81-8.97ZM144.38,126.62c1.69.69,16.27-.21,16.63-1.41l1.07-3.61.76-1.53c-3.01-1.03-7.2-4.77-9.8-4.15-2.38,3.35-5.15,6.08-8.53,8.38l-.4,1.81c-.02.08.11.52.28.52ZM132.87,119.67c-.49,1.26-.89,4.4-.77,6.02l10.11,1.07c.11.01.51-.13.51-.24v-.66c.26-.84.05-1.39-.6-2.04-2.39-2.42-4.35-5.04-6.34-7.82l-2.08.85c-.08.33-.22.93-.31,1.2l-.51,1.62ZM90.39,130.46c.05.68.15,1.52.27,2.17-.01.11-.05.35-.03.46l.27,1.25.25,1.16c0,.13-.02.38,0,.5l.22.96.25,1.14.19.75c.17.66.51,1.81.72,2.4.05.13.17.38.23.5.12.48.47,1.44.73,1.86.28.45,3.36.1,5.34,1.91.42.38.81.87,1.13,1.24.13.67.17,1.8.45,2.39,1.8,3.8-.25,2.8.53,8.25.08.59.68,1.4.67,2.08,0,1.6-1.48,2.04-1.89,2.64.88,2.07,1.58,4.33,1.76,6.62l.28,3.52c.13.27.94.41,1.25.5l10.6,3.09c6.34,1.85,12.79,2.74,19.22,3.55l2.14.27c.39.1.92.19,1.44.23l2.9.26c.97.09,1.89.11,2.88.18l2.42.18c2.97.22,11.91.03,15.1-.24,5.26-.44,10.36-1.02,15.5-2.18l9.97-2.25c.16-.04.52-.21.65-.29.54-.06,1.22-.15,1.83-.33l6.59-1.86,1.72-.38,10.51-2.91c-1.56-3.46-2.5-8.42-3.02-12.11l-.18-1.27c-1.43-.5-2.92-1.12-4.23-1.83l-2.61-1.41c-.34-.18-.72-.36-1-.48-.08-.11-.18-.35-.24-.48-.03-.36.07-1.08,0-1.43l.51-.76c.12-.18.09-.75-.04-.95-1.17-1.82.25-2.64-.07-3.71-.15-.49-.57-1.34-.62-1.79-.09-.85.36-2.47.7-3.33.26-.22.74-.67.93-.93-.4-1.05-.29-2.19.38-3.06.99-1.29,2.29-2.02,3.95-2.03h3.07c.25-3.07.52-5.88,1.05-8.86.12-.67,1.07-4.44,1.1-4.43-.12-.02-.51-.11-.72-.04l-9.56,2.97c-.21.06-.52.17-.72.24-.09.03-.21.17-.28.24-.35.05-.8.15-1.09.31l-.34.18h-.43c-.75,0-1.54.11-2.16.47-.75.09-2.18.44-2.94.73,0,.08-.02.18-.01.24h-.4c-.36,0-.86.11-1.21.21l-.97.28c-.26.07-.71.21-.96.25-.42.07-1.12.15-1.64.27l-11.9,2.52c-.76.16-1.48.27-2.28.38-5.08.72-10.03,1.44-15.15,1.75l-4.28.26c-1.51.09-3.02.1-4.55.07l-4.08-.08-4.31-.24c-10.22-.57-23.49-3.73-33.2-7.26l-9.47-3.45-2.52-.94c-.64,1.91-.89,6.35-.75,8.26l.11,1.59ZM205.5,140.54s.17.13.28.21c1.47.2,2.18-.48,2.84.83l-.72.39c-.96.34-2.12.02-3.11.01h-1.43c-1.46-.02-4.73-1.54-6.07-.81-.72.39-1.45,3.33.26,3.77,2.12.55,4.11.83,6.33.95.36.02,1.06.11,1.32.26s0,.97-.26,1.11c-.22.12-.81.31-1.06.28l-4.7-.7c-.77-.11-1.72-.13-2.3.4-.52.48-.11,1.5.46,1.74,1.92.8,3.62,1.44,5.6,2.14.21.08.54.39.65.58.09.15-.1.74-.27.77-.43.07-1.37-.11-1.77-.26l-1.94-.77c-.39-.15-3.1-1.23-2.75-.03.04.14.2.61.32.69l2.52,1.53c1.05.63,2.5,1.27,3.66,1.49.34.06,1.04-.54,1.19-.73.48.11,1.2-.17,1.46-.64,1.93-3.61,1.2-1.53,2.6-3.71,1.26-1.97-.4-1.9,1.35-3.65,1.47-1.47,1.41-3.82.22-5.49-.99-1.38,2.76-2.42.33-5.34-.36-.44-.75-.77-1.21-.98-.5-.9-2.29-1.64-3.57-2.09l-.14,1.86,1.44.39c.31.08-.14,1.02-.45,1.06-.61.08-1.42.18-1.94.22l-1.8.12c-2.27.15-3.8-.25-4.83,1.54-.12.22-.27.78-.14.99.1.16.48.43.68.5,2.33.89,4.6,1.44,6.96,1.39ZM95.43,148.94c1.1.02,2.12-.06,3.34-.27-.14-2.34-1.44-2.62-3.8-3.14-1.3-.28-2.71.29-3.45-.79-.35-.52.79-.5-.29-2.28-1.15.79-2.16,1.41-3.05,2.3-.94.94-.21,2.56.59,3.37,2.27.46,4.33.75,6.66.79ZM89.69,154.18s.39.25.58.26l5.62.03,2.55-.38c1.08-.86,1.62-2.1,1-3.5-.1-.23-.65-.36-.94-.34-1.37.12-2.55.14-3.78.12s-2.46-.13-3.77-.32l-1.64-.24-.18,1.52c-.11.92.12,1.95.55,2.84ZM96.91,155.86h-5.84c-.32,0-.84.58-.76.94.16.67.51,1.44.91,1.92,2.03.2,4.18-.23,6.19-.98.52-.19,1.44-.56,1.87-.88.29-.21-.06-1.23-.18-1.46l-2.19.46ZM97.87,159.29l-1.55.37-3.25.68c.86,1.22,3.49.92,4.98.58.53-.12,1.49-.63,1.94-1.03.24-.21-.1-1.02-.3-1.43l-1.83.82ZM170.26,180.82c-.26.09-.82-.07-1.17-.11-.11.04-.41.27-.51.35h-.24c-.11-.05-.59-.13-.76-.07l-1.1.39c-.3.01-.94-.19-1.23-.09l-.98.36c-.08.03-.24.02-.33.03-.28-.27-1-.4-1.34-.17l-.48.33-.54.03c-.47-.19-.97-.25-1.38-.09-.24.1-.69.23-.93.27h-.73c-.41,0-1.24-.19-1.65-.13-.95.14-1.71.29-2.55.29h-7.22c-2.82,0-1.51-.58-3.21-.38-4.19.51-1.52-.25-5.53-.2-.58,0-1.32-.17-1.92-.19-.66-.03-1.32-.02-1.94-.12l-1.57-.24-1.94-.27-2.76-.35-4.41-.66c-.28,3.54-1.06,7.02-2.02,10.3-.09,1.09,6.69,3.6,7.83,4.03,3.56,1.36,7.1,2.4,10.89,3.01,8.12,1.31,13.75.65,21.73-.56.43-.07.96-.27,1.29-.43.19,0,.53.04.71,0l.96-.21,1.2-.24c.18-.04.52-.17.7-.24.12,0,.37,0,.5-.01.28-.04.73-.36.94-.57l.67.05c.2.02.58-.12.77-.17.51-.04,1.39-.24,1.87-.5.62,0,1.29-.25,1.52-.81.4.04.82.01,1.18-.11,1.77-.39,4.12-1.36,5.32-2.82-.3-.41-.64-.82-.73-1.07l-2.47-6.72c-1.12-3.05-.21-3.54-1.31-3.25-.32.09-.73.19-1.03.25l-1.47.29c-.71.14-1.98.56-2.62.78Z"/>
        <path class="st127" d="M162.18,68.13l-.06.71c-2.94-.23-5.85-.06-8.79.78-1.74.5-4.44.86-3.75,2.66.62,1.63-.28.84.28,3.26l-.34,1.13c-.17.56-.42,1.37-.41,1.93l.05,2.93.53,4.33-.54.74-4.2,1.37c-.38.12-1.27-.1-1.55-.37l-1.34-1.28.39-1.14s.37-.46.42-.64l.73-2.57c.19-.66.26-1.39.35-2.09.73-5.25-1.1-4.74-.65-6.85.13-.62-.07-1.34-.78-1.47-1.68-.32-9.97-1.6-10.85-.52-.39.48-.78,1.67-.67,2.31s1.26.85,1.81.8l.3-.27c1.15-.08-.33,1.28-.23,3.49s1.69,3.84,3.86,4.08c3.09.34,2.69.45,5.52-.58-.27,1.52-.7,3.03-1.48,4.29-.37.6-.77,1.15-.17,1.81,2.33,2.56,3.02,2.97,5.99,2.05l5.61-1.73c.25-.08.76-.5.76-.73.02-.63-.47-1.74-.93-2.08-.18-.13-.53-.25-1.02-.42l.31-3.72.13-2.06.34-.08c2.79,2.35,6.87,2.8,9.92.91l1.83-1.13s.4.05.48.06c.12,1.01.42,2.62.28,3.74-.63,4.96-1.22,9.69-2.34,14.52-.91,3.95-2.56,7.48-4.17,11.18-.14.32-.6.65-.88.78-.23.12-.37.19-.34.17l-2.88.35-4.12.46c-4.37.49-12.56-.08-16.14-3.04l-.52-6.69-.27-4.55c-.27-4.61-1.18-8.96-2.48-13.37-.61-2.09-1.2-4.07-1.46-6.24-.08-.69-.33-5.14.46-5.56,3.54-1.87,8.58-2.78,12.7-3.04l3.43-.22c1.56-.1,3.07-.07,4.63-.01,4.81.17,7.74.54,12.25,1.6ZM143.38,100.96c3.42.29,6.53-.19,9.73-1.35.38-.14,1.22-.12,1.78-.16,1.58-2.17,3.5-5.8,3.38-8.54-.04-.81-.9-1.4-1.63-1.17l-9.1,2.88c-1.65.52-3.34.81-5.09.94-2.61.21-4.69-1.48-4.92-.3-.04.21.12.53.29.88.71,1.39.98,3.3,1.14,4.82.2,1.88,2.93,1.88,4.41,2ZM148.07,105.03l-.32-1.05c-.16-.55-1.77.81-3.85.14l-1.53-.5c-.25-.08-.81.13-.9.35-.64,1.58,4.83,2.54,6.6,1.06Z"/>
        <path class="st112" d="M156.59,108.44s.11-.05.34-.17c.28-.14.74-.46.88-.78,1.61-3.7,3.26-7.23,4.17-11.18,1.12-4.83,1.71-9.56,2.34-14.52.14-1.12-.16-2.74-.28-3.74-.08-.01-.48-.06-.48-.06.24-.15.59-.71.7-.96l-.69-1.02c.31-1.23.18-2.38-.25-3.62l.96-.42c.74-.32.07-2.26-.37-2.49-.51-.26-1.15-.48-1.77-.63l.06-.71c2.14.5,4.39,1.17,6.29,1.9,1.46,3.39,2.07,7.25,1.4,10.85-.07.36.43,1.15.79,1,1.25-.5.26-1.86,2.62-4.5,1.29-1.44,2.23-2.81,4.24-1.97.47.2,1.11.45,1.44.77.55.55.94,1.65.83,2.45-.49,3.48-2.48,6.59-5.38,8.53-.36.24-1.42.14-1.81,0l-1.56-.5c-.21-.07-.76-.03-.87.15s-.04.69.12.84l.94.94c-2.08,5.71-7.91,15.7-12.6,19.37-.45.35-1.59.39-2.06.47Z"/>
        <path class="st19" d="M127.61,120.39c-.06-.02-.66.27-.63.43l.29,1.59c.05.29.96.48,1.2.29.72-.53,1.92-1.35,2.49-1.84l-.14,1.49-.19,1.86c-.07.71-.21,1.94.12,2.56s1.73.09,2.93.7l1.21.05c1.95.69.08-.06,2.67.33l1.7.26c.71.11,1.44.06,2.2.08l2.43.05c2.58.05,2.86.58,6.34.22l4.32-.45,1.37-.15,4.62-.56c.5-.06,1.17-.13,1.33-.62l1.52-4.46c.1-.3.49-.69.61-.92.21.15.77.33,1.06.32.32-.02.7-.53.9-.91,1.8-3.43,3.7-6.62,5.77-9.89.34-.54.58-1.13.71-1.65,2.02.73,2.16.06,4.27,1.12l-1.04,1.58-1.21,1.87-1.3,2.13c-.23.38-.45,1.02-.64,1.5l-2.22,5.64c-.4,1.01-.61,2.12-.92,3.2-.48,1.67-.15,2.73-1,2.86l-6.94,1.02c-1.94.29-3.92.41-5.9.55l-3.6.26c-2.29.16-4.53.12-6.85.14l-3.35.03c-5.15.04-11.89-.87-17.12-1.67-.26-.04-.68-.57-.7-.9-.29-5.05,1.22-9.84,3.73-14.21l2.04-3.56c.17-.3.97-.5,1.3-.47l-.88,2.06-1.02,2.38-1.5,3.8c-.24.6-.2,1.36.03,1.9Z"/>
        <path class="st104" d="M186.23,114.64c2.18,2.9,4.14,5.62,5.81,8.97-7.23,2.02-14.21,3.65-21.53,4.94,1.03-6.29,3.51-11.95,7.12-17.08.17-.24.67-.45.99-.54l6.25,2.54,1.36,1.18Z"/>
        <path class="st104" d="M156.84,115.13c-.12-.09-.59-1.04-2.58-1l-2.25.05.27-.76c.23-.25.59-.46,1-.66,2.22-1.07,4.35-2.11,6.37-3.52.53-.37,1.16-1.14,1.67-1.67,1.76-1.83,3.41-4.09,4.8-6.11.09-.13.38-.36.45-.3.55.48,2.08,2.63,3.37,4,.39.42,1.25.92,1.19,1.53-.1,1.06-.81,1.82-1.32,2.68l-5.34,9.05c-.14.23-.82.45-1.1.3l-5.32-2.85c-.4-.21-.92-.52-1.2-.74Z"/>
        <path class="st104" d="M110.42,125.82l3.59-3.88,5.52-5.49c1.48-1.47,3.05-2.69,4.78-3.87-.21.14,3.48-1.71,3.53-1.46-3.53,6.19-5.6,10.55-5.31,17.76-4.14-.88-7.89-1.76-12.11-3.05Z"/>
        <path class="st19" d="M207.9,141.98l-3.36,12.41c-.15.19-.85.8-1.19.73-1.16-.21-2.61-.85-3.66-1.49l-2.52-1.53c-.12-.07-.28-.55-.32-.69-.35-1.2,2.36-.13,2.75.03l1.94.77c.4.16,1.33.34,1.77.26.17-.03.36-.62.27-.77-.12-.19-.44-.5-.65-.58-1.98-.71-3.67-1.34-5.6-2.14-.57-.24-.97-1.25-.46-1.74.58-.54,1.53-.52,2.3-.4l4.7.7c.25.04.84-.16,1.06-.28.26-.14.53-.97.26-1.11s-.96-.24-1.32-.26c-2.21-.12-4.21-.4-6.33-.95-1.7-.44-.98-3.37-.26-3.77,1.35-.73,4.61.79,6.07.8h1.43c.99.02,2.16.34,3.11,0Z"/>
        <path class="st104" d="M162.08,121.6l-1.07,3.61c-.36,1.21-14.94,2.11-16.63,1.41l.17-1.06c2.96-1.7,5.92-3.59,8.43-5.86.97-.88,1.68-.86,2.9-.46l5.7,1.88c.17.06.51.41.51.48Z"/>
        <path class="st19" d="M209.29,134.58c-.1.07-.28.44-.31.64l-.76,5.27-2.73.05c-2.36.04-4.63-.5-6.96-1.39-.2-.07-.58-.34-.68-.5-.13-.2.01-.77.14-.99,1.03-1.79,2.56-1.39,4.83-1.54l1.8-.12c.52-.03,1.33-.13,1.94-.22.31-.04.76-.97.45-1.06l-1.44-.39.14-1.86c1.29.45,3.07,1.19,3.57,2.09Z"/>
        <path class="st104" d="M142.73,125.86v.66c0,.11-.41.25-.52.24l-10.11-1.07c-.12-1.62.28-4.75.77-6.02l.99-.39c1.07-.41,1.97-.03,2.71.74,1.83,1.93,4.17,4.37,6.15,5.83Z"/>
        <path class="st3" d="M204.53,154.39l3.36-12.41.72-.39c-.67-1.31-1.37-.63-2.84-.83-.11-.08-.28-.21-.28-.21l2.73-.05.76-5.27c.03-.2.21-.57.31-.64.46.21.84.54,1.21.98,2.42,2.92-1.32,3.96-.33,5.34,1.19,1.67,1.25,4.01-.22,5.49-1.75,1.76-.09,1.68-1.35,3.65-1.39,2.19-.67.1-2.6,3.71-.26.48-.97.75-1.46.64Z"/>
        <path class="st125" d="M162.08,121.6c0-.06-.34-.42-.51-.48l-5.7-1.88c-1.22-.4-1.92-.42-2.9.46-2.51,2.28-5.47,4.17-8.43,5.86l-.17,1.06c-.16,0-.29-.43-.28-.52l.4-1.81c3.39-2.3,6.15-5.03,8.53-8.38,2.6-.62,6.79,3.12,9.8,4.15l-.76,1.53Z"/>
        <path class="st104" d="M137.65,110.07l-.08,2.21c-.01.39.13,1.11.17,1.58.23,2.77.69,1.17,1.23,3.65-.78-.61-1.34-1.41-1.85-2.44-.65-1.31-2.9-.31-3.65.14l-4.09,2.45c1.26-3.2,2.65-6.21,3.99-8.94.49-1,1.95.61,2.25.74.55.23,1.52.5,2.01.62Z"/>
        <path class="st36" d="M149.88,113.62c-1.7,2.36-3.57,4.07-5.91,5.7-1.49,1.05-2.66-4.19-2.74-4.9l.04-.87c2.84.24,5.48.22,8.34-.08l.26.16Z"/>
        <path class="st126" d="M149.88,113.62l-.26-.16c-2.86.3-5.5.32-8.34.08l-.04.87-.74-3.91c3.51.3,6.66.4,10.11.22l2.65-.14.12.5-1.65.68c-1.2.5-.81,1.3-1.84,1.85Z"/>
        <path class="st52" d="M94.97,145.54c.11.32.22.79.26,1.2l.2,2.21c-2.34-.05-4.39-.33-6.66-.79-.8-.81-1.53-2.43-.59-3.37.89-.89,1.89-1.51,3.05-2.3,1.09,1.78-.06,1.76.29,2.28.74,1.07,2.16.5,3.45.79Z"/>
        <path class="st52" d="M94.72,150.37s.13.06.31.15c.12.03.68.22.71.36l.69,3.3h-6.74c-.43-.9-.66-1.93-.55-2.85l.18-1.52,1.64.24c1.32.19,2.55.3,3.77.32Z"/>
        <path class="st125" d="M142.73,125.86c-1.97-1.45-4.31-3.89-6.15-5.83-.74-.78-1.64-1.16-2.71-.74l-.99.39.51-1.62c.09-.27.23-.87.31-1.2l2.08-.85c1.99,2.78,3.95,5.4,6.34,7.82.65.66.86,1.2.6,2.04Z"/>
        <path class="st8" d="M156.84,115.13l-1.88-.6c-.82-.26-2.23-.19-3.1.16-.38.15-.65,1.14-.91,1.49-1.82,2.48-4.15,4.7-6.67,6.51-1.04.75-4.26-3.14-4.28-3.89.11-.02.52-.09.52-.24l.02-.58c.72,1.23,1.2,2.73,1.77,2.86.7.15,1.96.05,2.58-.36,1.88-1.24,3.36-2.69,4.85-4.31l2.53-2.75-.27.76,2.25-.05c1.99-.05,2.47.91,2.58,1Z"/>
        <path class="st120" d="M96.91,155.86l.5,1.88c-2.01.75-4.16,1.18-6.19.98-.4-.48-.75-1.25-.91-1.92-.09-.36.44-.94.76-.94h5.84Z"/>
        <path class="st97" d="M89.69,154.18h6.74s-.69-3.29-.69-3.29c-.03-.14-.59-.33-.71-.36-.18-.09-.35-.17-.31-.15,1.23.02,2.41,0,3.78-.12.29-.03.84.11.94.34.62,1.4.08,2.65-1,3.5l-2.55.38-5.62-.03c-.19,0-.61-.24-.58-.26Z"/>
        <path class="st62" d="M172.45,109.16c-.13.52-.37,1.11-.71,1.65-2.07,3.27-3.97,6.46-5.77,9.89-.2.38-.57.89-.9.91-.29.02-.85-.17-1.06-.32l.53-1,.78-.24c.06-1.27.09-.04,1.25-2.15l1.04-1.88c.52-.94,1.63-2.42,1.79-2.91.38-1.16.86-1.92,1.52-2.86l1.01-1.43.51.33Z"/>
        <path class="st103" d="M175.26,73.74c-1.23.78-2.86,1.33-3.25,3.27-.6-.04-.63-3.74-1.26-5.2l-.21-.82,3.5,2.01,1.22.74Z"/>
        <path class="st117" d="M130.97,120.86c-.57.49-1.77,1.31-2.49,1.84-.25.18-1.15,0-1.2-.29l-.29-1.59c-.03-.16.56-.46.63-.43.16.32.93.58,1.16.31l1.79-2.14c.15-.18.67-.27.85-.18.55.3-.13,2.21-.44,2.49Z"/>
        <path class="st97" d="M95.43,148.94l-.2-2.21c-.04-.41-.15-.88-.26-1.2,2.36.51,3.65.79,3.8,3.14-1.22.2-2.24.29-3.34.27Z"/>
        <path class="st121" d="M97.87,159.29c.34.48.49,1.15.19,1.63-1.49.34-4.12.64-4.98-.58l3.25-.68,1.55-.37Z"/>
        <path class="st57" d="M138.13,110.31c-.03,2.86.06,4.3,1.81,6.71l.12-.71.27.94c.08.29.13.59.21.73l-.02.58c0,.15-.42.22-.52.24-.4-.27-.91-.81-1.02-1.29-.54-2.48-1-.88-1.23-3.65-.04-.47-.19-1.19-.17-1.58l.08-2.21c.06.01.17,0,.24,0l.24.24Z"/>
        <path class="st69" d="M97.41,157.74l-.5-1.88,2.19-.46c.12.23.47,1.25.18,1.46-.43.32-1.35.69-1.87.88Z"/>
        <path class="st123" d="M98.06,160.92c.3-.49.15-1.15-.19-1.63l1.83-.82c.2.41.54,1.21.3,1.43-.45.4-1.41.91-1.94,1.03Z"/>
        <path class="st114" d="M140.06,116.31c-1.1-1.55-1.58-3.53-1.43-5.54,0-.09-.08-.4-.16-.41l-.34-.04-.24-.24h1.18c.02.64-.03,1.26.11,1.92l.88,4.32Z"/>
        <path class="st87" d="M142.45,85.18l-.39,1.14,1.34,1.28c.28.27,1.18.5,1.55.37l4.2-1.37,2.1-.6c-.31-.54-.51-1.26-.17-1.59l.96.05c.46.33.95,1.45.93,2.08,0,.23-.51.66-.76.73l-5.61,1.73c-2.97.92-3.66.51-5.99-2.05-.6-.66-.2-1.21.17-1.81.78-1.26,1.21-2.77,1.48-4.29-2.83,1.03-2.43.92-5.52.58-2.16-.24-3.76-1.83-3.86-4.08s1.38-3.57.23-3.49c-.39.03-1.31-.05-1.49-.39-.23-.43.68-.96,1.12-.96s.87-.23,1.22-.34c2.68-.82,5.5-.58,8.18.35.95.33.49.7,1.22,2.81.2.57.45,1.5.42,2.02l-.13,2.03c-.09,1.43-.45,2.83-.79,4.2l-.4,1.58ZM137.95,79.88c.77.64,1.62.46,2.58,0,.58-.28,1.72-.54,1.84-1.42s.09-1.81.08-2.85c-.82-1.22-2.09-2.64-3.8-1.99-.31-.42-2.18-.25-2.86-.19-.22.02-1.62,2.55-1.24,4.44.31,1.54,1.95,2.32,3.42,2Z"/>
        <path class="st10" d="M143.38,100.96c-1.48-.13-4.22-.12-4.41-2-.16-1.53-.44-3.43-1.14-4.82-.18-.35-.34-.66-.29-.88.24-1.19,2.31.5,4.92.3,1.76-.14,3.44-.42,5.09-.94l9.1-2.88c.73-.23,1.59.36,1.63,1.17.12,2.75-1.8,6.37-3.38,8.54-.56.04-1.4.02-1.78.16-3.2,1.17-6.31,1.65-9.73,1.35ZM140.29,96.4c-.01.81-.05,1.74.51,2.52,3.22,1.29,8.68.46,11.95-.81.45-.17,1.46-.46,1.75-.89,1.21-1.76,2-3.68,2.33-5.91l-4.28,1.3c-4.98,1.51-7.13,2.67-12.76,2.36l.5,1.43Z"/>
        <path class="st10" d="M164.26,71.96l-.96.42c.43,1.24.56,2.39.25,3.62l.69,1.02c-.11.25-.46.81-.7.96l-1.83,1.13c-3.05,1.89-7.13,1.44-9.92-.91-.41-.35-.73-1.1-.97-1.41l-.53-1.45c-.29-.81-.22-1.86-.25-2.93.56-.46,1.14-.84,1.8-1.11,4.38-1.77,7.87-2.42,12.29-.45l.12,1.12ZM155.67,71.78c-1.29.19-2.87.75-4.04,1.4-1.22.68.42,4.54,4.41,5.43.74.16,2.12.24,2.8,0l1.88-.68c.13-.05.39-.17.44-.28l.56-1.17c.45-.95.84-2.38.17-3.32l-1.14-1.59c-.3-.41-1.57-.16-2.01-.07l-1.23-.15c-.47-.06-1.36.36-1.84.43Z"/>
        <path class="st7" d="M142.45,85.18l.4-1.58c.35-1.37.7-2.77.79-4.2l.13-2.03c.03-.52-.22-1.45-.42-2.02-.73-2.1-.27-2.48-1.22-2.81-2.68-.92-5.5-1.17-8.18-.35-.34.11-.79.33-1.22.34s-1.35.53-1.12.96c.18.34,1.1.41,1.49.39l-.3.27c-.56.05-1.7-.14-1.81-.8s.28-1.84.67-2.31c.88-1.07,9.17.21,10.85.52.71.14.92.85.78,1.47-.46,2.11,1.38,1.6.65,6.85-.1.69-.16,1.42-.35,2.09l-.73,2.57c-.05.17-.37.59-.42.64Z"/>
        <path class="st74" d="M150.83,76.79c.24.31.56,1.06.97,1.41l-.34.08-.13,2.06-.31,3.72c.49.18.84.29,1.02.42l-.96-.05c-.33.32-.13,1.05.17,1.59l-2.1.6.54-.74-.53-4.33-.05-2.93c0-.56.24-1.37.41-1.93l.34-1.13.96,1.25Z"/>
        <path class="st103" d="M162.12,68.84c.62.15,1.26.37,1.77.63.45.23,1.11,2.17.37,2.49l-.12-1.12c-4.42-1.97-7.91-1.31-12.29.45-.67.27-1.25.65-1.8,1.11.03,1.06-.04,2.12.25,2.93l.53,1.45-.96-1.25c-.56-2.42.34-1.63-.28-3.26-.69-1.8,2-2.16,3.75-2.66,2.93-.84,5.85-1.01,8.79-.78Z"/>
        <path class="st101" d="M148.07,105.03c-1.77,1.48-7.24.53-6.6-1.06.09-.23.66-.43.9-.35l1.53.5c2.08.68,3.69-.68,3.85-.14l.32,1.05Z"/>
        <path class="st113" d="M140.06,116.31l-.12.71c-1.75-2.41-1.84-3.85-1.81-6.71l.34.04c.08.01.17.32.16.41-.15,2.01.33,3.99,1.43,5.54Z"/>
        <path class="st82" d="M138.63,73.63l-.22.74c-.32.15-.89.47-1.12.78-.41.56.18,1.32.63,1.59l.03,1.74v1.41c-1.47.32-3.11-.46-3.42-2-.38-1.9,1.02-4.43,1.24-4.44.68-.05,2.55-.22,2.86.19Z"/>
        <path class="st64" d="M142.36,78.46l-.65-.78c-.33-.4-1.11-.72-1.67-.61-1.74.35-1.55,2.03-2.1,1.4l-.03-1.74,1.04-.2c.28-.05.71-.47.82-.73s-.01-1.02-.28-1.1l-1.09-.34.22-.74c1.71-.66,2.99.77,3.8,1.99.01,1.04.04,1.97-.08,2.85Z"/>
        <path class="st71" d="M142.36,78.46c-.11.88-1.25,1.14-1.84,1.42-.95.46-1.81.64-2.58,0v-1.41c.54.62.35-1.06,2.1-1.4.56-.11,1.34.2,1.67.61l.65.78Z"/>
        <path class="st81" d="M152.75,98.11c-3.28,1.28-8.73,2.11-11.95.81-.55-.78-.52-1.71-.51-2.52.02-.1.06-.25.09-.34.04-.13.45-.19.61-.19,3.2.04,7.99-.25,10.95-1.02l2.05-.53c-.26,1.4-.59,2.65-1.24,3.78Z"/>
        <path class="st1" d="M152.75,98.11c.65-1.13.98-2.39,1.24-3.78l-2.05.53c-2.96.77-7.75,1.05-10.95,1.02-.16,0-.57.07-.61.19-.03.08-.06.24-.09.34l-.5-1.43c5.63.31,7.78-.85,12.76-2.36l4.28-1.3c-.33,2.23-1.13,4.15-2.33,5.91-.29.43-1.3.72-1.75.89Z"/>
        <path class="st47" d="M158.73,71.5c.44.27,1.35.78,1.6,1.22.8,1.36.72,2.93.3,4.23-1.27-1.69-3.69-1.35-4.57-.3l-.66.79c-.27-.49-.48-1.02-.72-1.64l.74-.46,1.2-.24c.35-.07.53-1,.43-1.32-.12-.39-.73-.66-1.41-.67l-.47-.36.5-.95c.48-.07,1.37-.49,1.84-.43l1.23.15Z"/>
        <path class="st99" d="M155.67,71.78l-.5.95.47.36-1.21-.02c-.23,0-.68.2-.78.4-.12.24-.08.89.04,1.13.34.7.92.89,1.73.72l-.74.46c.25.62.46,1.15.72,1.64l.64,1.18c-3.99-.89-5.64-4.75-4.41-5.43s2.74-1.21,4.04-1.4Z"/>
        <path class="st71" d="M160.64,76.94l.09.55c.02.13.29.14.43.15-.05.11-.31.23-.44.28l-1.88.68c-.68.25-2.06.17-2.8,0l-.64-1.18.66-.79c.89-1.05,3.31-1.39,4.57.3Z"/>
        <path class="st124" d="M161.16,77.65c-.13-.02-.41-.03-.43-.15l-.09-.55c.42-1.3.49-2.86-.3-4.23-.25-.44-1.16-.95-1.6-1.22.44-.09,1.72-.34,2.01.07l1.14,1.59c.67.94.29,2.38-.17,3.32l-.56,1.17Z"/>
        <path class="st118" d="M137.91,76.74c-.45-.27-1.03-1.03-.63-1.59.23-.32.81-.64,1.12-.78l1.09.34c.27.08.38.84.28,1.1s-.54.67-.82.73l-1.04.2Z"/>
        <path class="st40" d="M155.64,73.1c.67.01,1.29.28,1.41.67.1.32-.08,1.25-.43,1.32l-1.2.24c-.81.16-1.38-.03-1.73-.72-.12-.24-.16-.89-.04-1.13.1-.2.55-.4.78-.4l1.21.02Z"/>
      </g>
    </g>
  </g>
</svg>